<svg width="32" height="32" viewBox="0 0 32 32" fill="none" xmlns="http://www.w3.org/2000/svg">
<g clip-path="url(#clip0_1_3)">
<mask id="mask0_1_3" style="mask-type:luminance" maskUnits="userSpaceOnUse" x="0" y="0" width="32" height="32">
<path d="M32 0H0V32H32V0Z" fill="white"/>
</mask>
<g mask="url(#mask0_1_3)">
<path d="M16 31.4752C7.47518 31.4752 0.539007 24.5248 0.539007 16C0.539007 7.47518 7.47518 0.539009 16 0.539009C24.5248 0.539009 31.461 7.47518 31.461 16.0142C31.461 24.5532 24.5248 31.4752 16 31.4752Z" fill="#272327"/>
<path d="M16 1.06383C24.2553 1.06383 30.9362 7.74468 30.9362 16C30.9362 24.2553 24.2553 30.9362 16 30.9362C7.74468 30.9362 1.06383 24.2553 1.06383 16C1.06383 7.74468 7.75887 1.06383 16 1.06383ZM16 0C7.17731 0 0 7.17731 0 16C0 24.8227 7.17731 32 16 32C24.8227 32 32 24.8227 32 16C32 7.17731 24.8227 0 16 0Z" fill="#F6BD75"/>
<path d="M25.078 15.9433L21.4894 14.6667L22.1135 15.6738H18.539L6.92199 14.7234V14.7518L10.0567 15.9291L6.92199 17.1489V17.1915L19.1064 16.2128H22.1135L21.4894 17.2199L25.078 15.9433ZM15.3475 6.21277C14.8369 6.66667 14.6241 7.13475 14.6099 7.63121L8.89362 14.3404L9.56028 14.3972L14.7092 8.34043C15.2482 10.1844 17.6738 12.3404 16.9787 14.9929L19.5177 15.2057H19.5603C20.5816 12.2128 15.078 9.20568 15.3475 6.21277ZM19.6312 16.7234H19.5887L17.0355 16.9362C17.7447 19.6028 15.3191 21.7731 14.766 23.6312L9.67376 17.5319L9.00709 17.5887L14.6525 24.3546C14.6525 24.8653 14.8652 25.3475 15.3901 25.8156C15.1348 22.7943 20.6809 19.7731 19.6454 16.7376" fill="#F6BD75"/>
</g>
</g>
<defs>
<clipPath id="clip0_1_3">
<rect width="32" height="32" fill="white"/>
</clipPath>
</defs>
</svg>
