<svg width="32" height="32" viewBox="0 0 32 32" fill="none" xmlns="http://www.w3.org/2000/svg">
<g clip-path="url(#clip0_1_312)">
<mask id="mask0_1_312" style="mask-type:luminance" maskUnits="userSpaceOnUse" x="0" y="0" width="32" height="32">
<path d="M32 0H0V31.9574H32V0Z" fill="white"/>
</mask>
<g mask="url(#mask0_1_312)">
<path d="M16 31.4752C7.47517 31.4752 0.539001 24.539 0.539001 16C0.539001 7.46099 7.47517 0.539009 16 0.539009C24.5248 0.539009 31.461 7.47518 31.461 16.0142C31.461 24.5532 24.5248 31.4752 16 31.4752Z" fill="#272327"/>
<path d="M16 1.06383C24.2553 1.06383 30.9362 7.74468 30.9362 16C30.9362 24.2553 24.2553 30.9362 16 30.9362C7.74468 30.9362 1.06383 24.2553 1.06383 16C1.06383 7.74468 7.75887 1.06383 16 1.06383ZM16 0C7.17731 0 0 7.17731 0 16C0 24.8227 7.17731 32 16 32C24.8227 32 32 24.8227 32 16C32 7.17731 24.8227 0 16 0Z" fill="#F6BD75"/>
<path d="M24.2695 9.26241L19.3475 10.2411L20.1844 11.078L20.8653 11.7589L18.8511 13.7589C17.8865 12.9504 16.8085 12.5957 15.7731 12.6241C14.5816 12.6525 13.4752 13.1915 12.6667 14C11.8582 14.8085 11.3192 15.9149 11.2766 17.1206C11.234 18.156 11.5745 19.2482 12.3546 20.2411L7.7305 24.8652L8.62412 25.773L14.1135 20.2837L13.6738 19.8298C12.8085 18.9362 12.4965 18.0284 12.539 17.1631C12.5674 16.3121 12.9645 15.5035 13.5603 14.8936C14.156 14.2979 14.9645 13.9149 15.8014 13.8865C16.6383 13.8582 17.5319 14.1844 18.3972 15.078L18.8511 15.5461L21.7447 12.6525L23.2624 14.1702L24.2553 9.23404L24.2695 9.26241ZM16.0993 15.1631C14.8511 15.1631 13.844 16.1844 13.844 17.4184C13.844 18.6525 14.8653 19.6738 16.0993 19.6738C17.3333 19.6738 18.3546 18.6525 18.3546 17.4184C18.3546 16.1844 17.3333 15.1631 16.0993 15.1631Z" fill="#F6BD75"/>
</g>
</g>
<defs>
<clipPath id="clip0_1_312">
<rect width="32" height="32" fill="white"/>
</clipPath>
</defs>
</svg>
