<svg width="32" height="32" viewBox="0 0 32 32" fill="none" xmlns="http://www.w3.org/2000/svg">
<g clip-path="url(#clip0_1_303)">
<mask id="mask0_1_303" style="mask-type:luminance" maskUnits="userSpaceOnUse" x="0" y="0" width="32" height="32">
<path d="M32 0H0V31.9574H32V0Z" fill="white"/>
</mask>
<g mask="url(#mask0_1_303)">
<path d="M16 31.4752C7.47518 31.4752 0.539009 24.5248 0.539009 16C0.539009 7.47518 7.47518 0.524826 16 0.524826C24.5248 0.524826 31.461 7.461 31.461 15.9858C31.461 24.5106 24.5248 31.461 16 31.461" fill="#272327"/>
<path d="M16 1.06383C24.2553 1.06383 30.9362 7.74468 30.9362 16C30.9362 24.2553 24.2553 30.9362 16 30.9362C7.74468 30.9362 1.06383 24.2553 1.06383 16C1.06383 7.74468 7.75887 1.06383 16 1.06383ZM16 0C7.17731 0 0 7.17731 0 16C0 24.8227 7.17731 32 16 32C24.8227 32 32 24.8227 32 16C32 7.17731 24.8227 0 16 0Z" fill="#F6BD75"/>
<path d="M16.1844 8.90781C13.5887 8.90781 10.922 9.56029 9.04965 10.0567C8.93617 15.234 11.0213 22.0426 15.8298 24.9362C20.4823 22.1277 22.8369 15.2057 22.7376 10.0567C20.9362 9.57447 18.7943 8.90781 16.1844 8.90781Z" fill="#F6BD75"/>
</g>
</g>
<defs>
<clipPath id="clip0_1_303">
<rect width="32" height="32" fill="white"/>
</clipPath>
</defs>
</svg>
