<svg width="32" height="32" viewBox="0 0 32 32" fill="none" xmlns="http://www.w3.org/2000/svg">
<g clip-path="url(#clip0_1_21)">
<mask id="mask0_1_21" style="mask-type:luminance" maskUnits="userSpaceOnUse" x="0" y="0" width="32" height="32">
<path d="M32 0H0V32H32V0Z" fill="white"/>
</mask>
<g mask="url(#mask0_1_21)">
<path d="M16 31.4752C7.47517 31.4752 0.539005 24.5248 0.539005 16C0.539005 7.47518 7.47517 0.539009 16 0.539009C24.5248 0.539009 31.461 7.47518 31.461 16C31.461 24.5248 24.5248 31.4752 16 31.4752Z" fill="#272327"/>
<path d="M16 1.06383C24.2553 1.06383 30.9362 7.74468 30.9362 16C30.9362 24.2553 24.2553 30.9362 16 30.9362C7.74468 30.9362 1.06383 24.2553 1.06383 16C1.06383 7.74468 7.75887 1.06383 16 1.06383ZM16 0C7.17731 0 0 7.17731 0 16C0 24.8227 7.17731 32 16 32C24.8227 32 32 24.8227 32 16C32 7.17731 24.8227 0 16 0Z" fill="#F6BD75"/>
<path d="M11.5887 20.2411C11.7589 20.3972 11.9433 20.539 12.1418 20.6383L10.9929 21.8014C10.8227 21.3617 10.4823 21.0213 10.0426 20.8511L11.1915 19.6879C11.2908 19.9007 11.4326 20.0851 11.5887 20.2411ZM18.6667 10.9078C17.5603 12.0284 16.7092 13.5745 15.1915 15.1206C14.8794 15.4326 13.8298 16.383 13.2199 16.922L14.8794 18.5674C15.4184 17.9574 16.3546 16.8936 16.6667 16.5816C18.1844 15.0355 19.7305 14.1702 20.8369 13.0496C22.6525 11.2057 23.617 8.07092 23.617 8.07092C23.617 8.07092 20.4965 9.06383 18.6667 10.9078ZM10.1986 21.6454C9.78723 21.2482 9.13475 21.2482 8.7234 21.6454C8.31206 22.0567 8.32624 22.7234 8.7234 23.1206C9.13475 23.5319 9.80142 23.5177 10.1986 23.1206C10.6099 22.7092 10.5957 22.0567 10.1986 21.6454ZM13.2766 20.2695C13.6596 20.2695 13.9858 20.1702 14.0993 20.0426L14.8085 19.3333L12.4539 17.0071L11.7447 17.7163C11.4752 17.9858 11.3617 19.1631 12.0142 19.8014C12.3546 20.1418 12.8511 20.2695 13.2766 20.2695Z" fill="#F6BD75"/>
<path d="M20.4397 20.2411C20.5957 20.0851 20.7376 19.8865 20.8369 19.6879L21.9858 20.8511C21.5461 21.0213 21.2057 21.3617 21.0355 21.8014L19.8865 20.6383C20.0993 20.539 20.2837 20.4113 20.4397 20.2411ZM13.3617 10.9078C11.5461 9.06383 8.41135 8.07092 8.41135 8.07092C8.41135 8.07092 9.37589 11.2057 11.1915 13.0496C12.2979 14.1702 13.844 15.0355 15.3617 16.5816C15.6738 16.8936 16.6099 17.9574 17.1489 18.5674L18.8085 16.922C18.1986 16.3688 17.1489 15.4326 16.8369 15.1206C15.305 13.5745 14.4681 12.0284 13.3617 10.9078ZM21.8298 21.6596C21.4184 22.0567 21.4184 22.7234 21.8298 23.1348C22.2411 23.5461 22.8936 23.5461 23.305 23.1348C23.7163 22.7376 23.7163 22.0709 23.305 21.6596C22.8936 21.2482 22.2411 21.2482 21.8298 21.6596ZM18.7518 20.2695C19.1773 20.2695 19.6738 20.1418 20.0142 19.8014C20.6525 19.1631 20.539 17.9858 20.2837 17.7163L19.5745 17.0071L17.2199 19.3333L17.9291 20.0426C18.0567 20.1702 18.383 20.2695 18.7518 20.2695Z" fill="#F6BD75"/>
</g>
</g>
<defs>
<clipPath id="clip0_1_21">
<rect width="32" height="32" fill="white"/>
</clipPath>
</defs>
</svg>
