<svg width="24" height="25" viewBox="0 0 24 25" fill="none" xmlns="http://www.w3.org/2000/svg">
<mask id="mask0_1_437" style="mask-type:luminance" maskUnits="userSpaceOnUse" x="0" y="0" width="24" height="25">
<path d="M24 0H0V24.3295H24V0Z" fill="white"/>
</mask>
<g mask="url(#mask0_1_437)">
<path d="M12.0824 24.3295C11.2037 24.3295 10.3616 24.1465 9.55606 23.7803L2.03203 20.3753C0.823794 19.8261 0.0183027 18.5995 -0.0183105 17.2632L0.0366089 7.23112C-4.39809e-06 5.72998 0.878714 4.37528 2.27002 3.77116L10.1053 0.347824C10.6728 0.109837 11.2586 -0.0183105 11.881 -0.0183105C12.5034 -0.0183105 13.1075 0.109838 13.6751 0.366131L22.2059 4.11899C23.286 4.59496 24 5.67505 24 6.86499V17.4096C24 18.5995 23.3043 19.6796 22.2426 20.1922L14.7002 23.762C13.8947 24.1464 12.9794 24.3478 12.0824 24.3478" fill="#272327"/>
<path d="M13.3089 1.20825L21.8398 4.96111C22.5904 5.29063 23.0846 6.0412 23.0846 6.865V17.4096C23.0846 18.2334 22.6087 19.0023 21.8581 19.3501L14.3158 22.9199C12.9428 23.579 11.3318 23.579 9.94049 22.9565L2.41646 19.5515C1.51943 19.1488 0.93362 18.2517 0.915314 17.2632L0.970234 7.24944C0.951927 6.11443 1.61097 5.07095 2.65444 4.63159L10.4897 1.20825C11.3867 0.823812 12.4119 0.823812 13.3089 1.20825Z" fill="#A1B9DF"/>
<path d="M12.9245 2.23339L19.3501 4.88786C19.8993 5.12584 19.8993 5.91303 19.3501 6.13271L12.9428 8.51257C12.3936 8.73225 11.7528 8.73225 11.2036 8.49426L4.85123 6.07779C4.30203 5.8398 4.30203 5.07092 4.85123 4.83293L11.1487 2.23339C11.7162 1.99541 12.357 1.9771 12.9245 2.23339Z" fill="#29407E"/>
<path d="M14.1327 10.3066L20.833 7.67047C21.4005 7.4691 22.0046 7.89015 22.0046 8.49427V16.9153C22.0046 17.5011 21.6568 18.0503 21.1076 18.2883L14.3707 21.2723C13.7849 21.5286 13.1442 21.1075 13.1442 20.4668V11.6979C13.1442 11.0572 13.5469 10.4897 14.151 10.2883" fill="#29407E"/>
<path d="M3.18535 7.70711L9.70251 10.1053C10.3982 10.3799 10.8558 11.0389 10.8558 11.7895L10.7643 20.5767C10.7643 21.1442 10.1785 21.5286 9.6659 21.2906L3.18535 18.3982C2.54462 18.1053 2.12357 17.4646 2.12357 16.7689V8.43938C2.12357 7.89018 2.67276 7.50574 3.18535 7.70711Z" fill="#29407E"/>
<path d="M17.0434 14.2242L17.2631 14.1326C18.1785 13.7665 18.4531 13.6201 18.6178 13.4187C18.8192 13.1807 18.8924 12.8695 18.8741 12.2837C18.8375 11.0022 18.7277 10.929 17.4096 11.4599C16.5492 11.8077 16.2929 11.9908 16.183 12.3935C16.1098 12.6498 16.0915 12.8329 16.1098 13.6567L15.1579 14.0411C15.1396 12.8512 15.1579 12.5766 15.3226 12.1006C15.5789 11.3134 16.1098 10.8741 17.4096 10.3615C19.2952 9.6109 19.8077 9.8855 19.8444 11.6063C19.881 12.961 19.6247 13.5468 18.8192 14.0228V14.0594C19.2585 13.9496 19.4599 13.9679 19.6247 14.096C19.8993 14.2791 20.0274 14.7185 20.0457 15.5239C20.064 16.4576 19.9542 17.1166 19.643 17.5926C19.3135 18.1418 18.8009 18.5079 17.7025 18.9473C16.4027 19.4599 15.8352 19.4965 15.5057 19.0937C15.2677 18.7825 15.1579 18.3432 15.1396 17.4645V17.0434L16.1098 16.659V17.0434C16.1464 18.3249 16.2746 18.3981 17.7208 17.8306C18.4164 17.556 18.7643 17.318 18.9107 17.0434C19.0206 16.8237 19.0755 16.3844 19.0572 15.7436C19.0389 15.048 18.9107 14.7917 18.5812 14.7734C18.3981 14.7551 18.3249 14.7734 17.2814 15.1944L17.0434 15.286V14.2425V14.2242Z" fill="#A1B9DF"/>
</g>
</svg>
