<svg width="24" height="25" viewBox="0 0 24 25" fill="none" xmlns="http://www.w3.org/2000/svg">
<mask id="mask0_1_439" style="mask-type:luminance" maskUnits="userSpaceOnUse" x="0" y="0" width="24" height="25">
<path d="M24 0H0V24.3295H24V0Z" fill="white"/>
</mask>
<g mask="url(#mask0_1_439)">
<path d="M12.0824 24.3295C11.2037 24.3295 10.3616 24.1465 9.55606 23.7803L2.03203 20.3753C0.823794 19.8261 0.0183027 18.5995 -0.0183105 17.2632L0.0366089 7.23112C-4.39928e-06 5.72998 0.878714 4.37529 2.27002 3.77117L10.1236 0.366133C10.6911 0.128146 11.2769 0 11.8993 0C12.5217 0 13.1259 0.128146 13.6934 0.384439L22.2243 4.1373C23.3043 4.61327 24.0183 5.69336 24.0183 6.88329V17.4279C24.0183 18.6178 23.3226 19.6979 22.2609 20.2105L14.7185 23.7803C13.913 24.1648 12.9977 24.3661 12.1007 24.3661" fill="#272327"/>
<path d="M13.3089 1.20825L21.8398 4.96111C22.5904 5.29063 23.0847 6.0412 23.0847 6.865V17.4096C23.0847 18.2334 22.6087 19.0023 21.8581 19.3501L14.3158 22.9199C12.9428 23.579 11.3318 23.579 9.94049 22.9565L2.41646 19.5515C1.51943 19.1488 0.93362 18.2517 0.915314 17.2632L0.970234 7.24944C0.951927 6.11443 1.61097 5.07095 2.65444 4.63159L10.4897 1.20825C11.3867 0.823812 12.4119 0.823812 13.3089 1.20825Z" fill="#86868C"/>
<path d="M12.9245 2.23339L19.3501 4.88785C19.8993 5.12584 19.8993 5.91303 19.3501 6.13271L12.9428 8.51257C12.3936 8.73225 11.7528 8.73225 11.2036 8.49426L4.85123 6.07779C4.30203 5.8398 4.30203 5.07092 4.85123 4.83293L11.1487 2.23339C11.7162 1.99541 12.357 1.9771 12.9245 2.23339Z" fill="#272327"/>
<path d="M14.1327 10.3066L20.833 7.67047C21.4005 7.4691 22.0046 7.89015 22.0046 8.49427V16.9153C22.0046 17.5011 21.6568 18.0503 21.1076 18.2883L14.3707 21.2723C13.7849 21.5286 13.1442 21.1075 13.1442 20.4668V11.6979C13.1442 11.0572 13.5469 10.4897 14.151 10.2883" fill="#272327"/>
<path d="M3.18535 7.70711L9.70251 10.1053C10.3982 10.3799 10.8558 11.0389 10.8558 11.7895L10.7643 20.5767C10.7643 21.1442 10.1785 21.5286 9.6659 21.2906L3.18535 18.3982C2.54462 18.1053 2.12357 17.4645 2.12357 16.7689V8.43938C2.12357 7.89018 2.67276 7.50574 3.18535 7.70711Z" fill="#272327"/>
<path d="M19.6979 10.5629L16.2197 11.9359L16.2563 14.2608H16.2746C16.5492 13.6018 16.8787 13.3272 17.849 12.9244C18.7094 12.5766 19.222 12.5766 19.5698 12.8878C19.8993 13.199 20.0275 13.7299 20.0641 14.9382C20.119 17.3913 19.6796 18.1235 17.6659 18.929C16.4394 19.4233 15.8902 19.4233 15.5606 18.929C15.341 18.6178 15.286 18.27 15.2677 17.3546L16.238 16.9702C16.2563 17.5011 16.2929 17.7025 16.3844 17.8855C16.5309 18.1601 16.8421 18.1601 17.611 17.8489C18.3432 17.556 18.7094 17.318 18.9291 17.0251C19.1121 16.7688 19.1304 16.421 19.1121 15.1945C19.0755 13.7665 18.8741 13.6201 17.6476 14.0961C16.6224 14.4988 16.3661 14.7368 16.2746 15.3409L15.3776 15.6887L15.2677 11.2585L19.6796 9.5011V10.5446L19.6979 10.5629Z" fill="#86868C"/>
</g>
</svg>
