<svg width="24" height="25" viewBox="0 0 24 25" fill="none" xmlns="http://www.w3.org/2000/svg">
<mask id="mask0_1_436" style="mask-type:luminance" maskUnits="userSpaceOnUse" x="0" y="0" width="24" height="25">
<path d="M24 0H0V24.3295H24V0Z" fill="white"/>
</mask>
<g mask="url(#mask0_1_436)">
<path d="M12.0824 24.3295C11.2037 24.3295 10.3616 24.1464 9.55606 23.7803L2.03203 20.3753C0.823795 19.8261 0.0183027 18.5995 -0.0183105 17.2632L0.0366089 7.23112C-4.39689e-06 5.72997 0.878714 4.37528 2.27002 3.77116L10.1053 0.34782C10.6728 0.109834 11.2586 -0.0183105 11.881 -0.0183105C12.5034 -0.0183105 13.1075 0.109834 13.6751 0.366127L22.2059 4.11899C23.286 4.59496 24 5.67505 24 6.86498V17.4096C24 18.5995 23.3043 19.6796 22.2426 20.1922L14.7002 23.762C13.8947 24.1464 12.9794 24.3478 12.0824 24.3478" fill="#272327"/>
<path d="M13.3089 1.20825L21.8398 4.96111C22.5904 5.29063 23.0847 6.0412 23.0847 6.865V17.4096C23.0847 18.2334 22.6087 19.0023 21.8581 19.3501L14.3158 22.9199C12.9428 23.579 11.3318 23.579 9.94049 22.9565L2.41646 19.5515C1.51943 19.1488 0.93362 18.2517 0.915314 17.2632L0.970234 7.24944C0.951927 6.11443 1.61097 5.07095 2.65444 4.63159L10.4897 1.20825C11.3867 0.823812 12.4119 0.823812 13.3089 1.20825Z" fill="#8C7E32"/>
<path d="M12.9245 2.21508L19.3501 4.86954C19.8993 5.10753 19.8993 5.89472 19.3501 6.1144L12.9428 8.49426C12.3936 8.71394 11.7528 8.71393 11.2036 8.47595L4.85123 6.05947C4.30203 5.82149 4.30203 5.05261 4.85123 4.81462L11.1487 2.21508C11.7162 1.9771 12.357 1.95879 12.9245 2.21508Z" fill="#FEE256"/>
<path d="M14.1327 10.3066L20.833 7.67047C21.4005 7.4691 22.0046 7.89015 22.0046 8.49427V16.9153C22.0046 17.5011 21.6568 18.0503 21.1076 18.2883L14.3707 21.2723C13.7849 21.5286 13.1442 21.1075 13.1442 20.4668V11.6979C13.1442 11.0572 13.5469 10.4897 14.151 10.2883" fill="#FEE256"/>
<path d="M3.18535 7.6888L9.70251 10.087C10.3982 10.3616 10.8558 11.0206 10.8558 11.7712L10.7643 20.5584C10.7643 21.1259 10.1785 21.5103 9.6659 21.2723L3.18535 18.3799C2.54462 18.087 2.12357 17.4462 2.12357 16.7506V8.42106C2.12357 7.87187 2.67276 7.48743 3.18535 7.6888Z" fill="#FEE256"/>
<path d="M14.1327 10.3066L20.833 7.67047C21.4005 7.4691 22.0046 7.89015 22.0046 8.49427V16.9153C22.0046 17.5011 21.6568 18.0503 21.1076 18.2883L14.3707 21.2723C13.7849 21.5286 13.1442 21.1075 13.1442 20.4668V11.6979C13.1442 11.0572 13.5469 10.4897 14.151 10.2883" fill="#FEE256"/>
<path d="M20.0092 17.9222L15.2677 19.8077L15.2311 18.1235C15.1945 16.3844 15.5606 15.8169 17.3547 14.8283C18.8925 13.913 18.9657 13.8215 18.9291 12.3753C18.8925 11.1121 18.6911 10.9656 17.5744 11.405C16.238 11.9359 16.0732 12.1739 16.1098 13.4553V13.913L15.1579 14.2974C15.1579 12.9244 15.1579 12.6132 15.341 12.1007C15.6156 11.3318 16.238 10.8192 17.5195 10.2883C19.3318 9.57434 19.8444 9.95877 19.881 12.0823C19.9176 13.1807 19.7712 13.8398 19.4233 14.3524C19.1487 14.7734 18.7277 15.1029 17.7574 15.6704C16.2563 16.5125 16.1831 16.659 16.2014 18.0869V18.3432L19.9725 16.8421V17.9222H20.0092Z" fill="#8C7E32"/>
</g>
</svg>
