<svg width="24" height="25" viewBox="0 0 24 25" fill="none" xmlns="http://www.w3.org/2000/svg">
<mask id="mask0_1_438" style="mask-type:luminance" maskUnits="userSpaceOnUse" x="0" y="0" width="24" height="25">
<path d="M24 0H0V24.3295H24V0Z" fill="white"/>
</mask>
<g mask="url(#mask0_1_438)">
<path d="M12.0824 24.3295C11.2037 24.3295 10.3616 24.1465 9.55606 23.7803L2.03203 20.3753C0.823794 19.8261 0.0183027 18.5995 -0.0183105 17.2632L0.0366089 7.23112C-4.39809e-06 5.72997 0.878714 4.37528 2.27002 3.77116L10.1053 0.347822C10.6728 0.109836 11.2586 -0.0183105 11.881 -0.0183105C12.5034 -0.0183105 13.1075 0.109836 13.6751 0.366129L22.2059 4.11899C23.286 4.59496 24 5.67505 24 6.86498V17.4096C24 18.5995 23.3043 19.6796 22.2426 20.1922L14.7002 23.762C13.8947 24.1464 12.9794 24.3478 12.0824 24.3478" fill="#272327"/>
<path d="M13.3089 1.20825L21.8398 4.96111C22.5904 5.29063 23.0847 6.0412 23.0847 6.865V17.4096C23.0847 18.2334 22.6087 19.0023 21.8581 19.3501L14.3158 22.9199C12.9428 23.579 11.3318 23.579 9.94049 22.9565L2.41646 19.5515C1.51943 19.1488 0.93362 18.2517 0.915314 17.2632L0.970234 7.24944C0.951927 6.11443 1.61097 5.07095 2.65444 4.63159L10.4897 1.20825C11.3867 0.823812 12.4119 0.823812 13.3089 1.20825Z" fill="#286155"/>
<path d="M12.9245 2.21508L19.3501 4.86954C19.8993 5.10753 19.8993 5.89472 19.3501 6.1144L12.9428 8.49426C12.3936 8.71394 11.7528 8.71394 11.2036 8.47595L4.85123 6.05947C4.30203 5.82149 4.30203 5.05261 4.85123 4.81462L11.1487 2.21508C11.7162 1.9771 12.357 1.95879 12.9245 2.21508Z" fill="#66BEA7"/>
<path d="M14.1327 10.3066L20.833 7.67047C21.4005 7.4691 22.0046 7.89015 22.0046 8.49427V16.9153C22.0046 17.5011 21.6568 18.0503 21.1076 18.2883L14.3707 21.2723C13.7849 21.5286 13.1442 21.1075 13.1442 20.4668V11.6979C13.1442 11.0572 13.5469 10.4897 14.151 10.2883" fill="#66BEA7"/>
<path d="M3.18535 7.6888L9.70251 10.087C10.3982 10.3616 10.8558 11.0206 10.8558 11.7712L10.7643 20.5584C10.7643 21.1259 10.1785 21.5103 9.6659 21.2723L3.18535 18.3799C2.54462 18.087 2.12357 17.4462 2.12357 16.7506V8.42107C2.12357 7.87187 2.67276 7.48743 3.18535 7.6888Z" fill="#66BEA7"/>
<path d="M19.4233 15.2127L20.2654 14.8832V15.9267L19.4599 16.2562L19.5148 18.1418L18.5263 18.5446L18.4713 16.659L14.9382 18.0686L14.9016 16.5674L17.7574 10.2883L19.2951 9.68414L19.4233 15.2311V15.2127ZM18.3249 11.0022H18.2883L15.7253 16.6773L18.4347 15.5972L18.3249 11.0022Z" fill="#286155"/>
</g>
</svg>
