<svg width="32" height="32" viewBox="0 0 32 32" fill="none" xmlns="http://www.w3.org/2000/svg">
<g clip-path="url(#clip0_31_9)">
<path d="M27.3429 27.2663L23.5152 27.177L22.1754 30.7624L18.6667 29.193L16.051 32L13.4099 29.2185L9.92663 30.8006L8.54864 27.2281L4.72089 27.3429L4.82297 23.5152L1.23764 22.1754L2.79426 18.6667L0 16.051L2.7815 13.4099L1.19936 9.92663L4.77193 8.54864L4.64434 4.72089L8.47209 4.82297L9.82456 1.23764L13.3206 2.79426L15.949 0L18.5774 2.7815L22.0734 1.1866L23.4386 4.77193L27.2663 4.64434L27.177 8.47209L30.7624 9.82456L29.193 13.3206L32 15.949L29.2185 18.5774L30.8006 22.0734L27.2281 23.4386L27.3429 27.2663Z" fill="#B1242E"/>
<path d="M18.0415 8.689L17.327 11.9298C17.2504 12.2488 17.0207 12.4912 16.7911 12.6188C16.5486 12.7464 16.2807 12.8102 16.0255 12.8102C15.7703 12.8102 15.5024 12.7592 15.26 12.6188C15.0175 12.4912 14.8006 12.2488 14.7241 11.9426V11.9298L14.0351 8.80383C12.3636 9.49283 10.9091 10.9346 10.3604 12.7464C10.7432 12.9378 11.2664 13.2057 11.8788 13.4737C13.1292 14.0096 14.7368 14.5327 16.051 14.5327C17.3652 14.5327 18.9601 13.9841 20.2105 13.4354C20.8485 13.1547 21.3844 12.874 21.7671 12.6699C21.1675 10.7815 19.8915 9.30144 18.0925 8.67624M22.0989 13.4737C21.7034 13.6906 21.1675 13.9713 20.5295 14.252C19.2408 14.8262 17.5694 15.4131 16.0255 15.4258C14.4817 15.4258 12.8102 14.8644 11.496 14.303C10.8581 14.0223 10.3094 13.7544 9.91388 13.5375C9.88836 16.8549 9.74801 20.0702 10.3732 22.4179C10.7049 23.681 11.2536 24.6762 12.134 25.3652C12.7081 25.8118 13.4226 26.1435 14.3541 26.3222V18.7432C13.0016 19.5088 11.1515 18.8708 10.5263 17.3014C10.9474 16.2552 11.9426 15.7448 12.925 15.7448C14.0861 15.7448 15.1962 16.4721 15.2345 17.8756V22.0734H16.9314V17.8884C16.9697 16.4976 18.0797 15.7703 19.2408 15.7576C20.2105 15.7576 21.2185 16.2679 21.6396 17.3142C21.0144 18.8836 19.177 19.5215 17.8246 18.756V26.3222C18.7432 26.1435 19.4577 25.799 20.0064 25.3525C20.874 24.6507 21.3971 23.6427 21.7161 22.3668C22.3158 19.9936 22.1372 16.7783 22.0989 13.4737Z" fill="white"/>
<path d="M13.8565 4.07018L15.5534 11.7257L15.6683 11.8533L16.0128 11.9298L16.3445 11.8533L16.4721 11.7257L18.1691 4.07018H13.8565Z" fill="white"/>
</g>
<defs>
<clipPath id="clip0_31_9">
<rect width="32" height="32" fill="white"/>
</clipPath>
</defs>
</svg>
