<svg width="250" height="54" viewBox="0 0 250 54" fill="none" xmlns="http://www.w3.org/2000/svg">
<g clip-path="url(#clip0_26_2)">
<mask id="mask0_26_2" style="mask-type:luminance" maskUnits="userSpaceOnUse" x="0" y="0" width="250" height="54">
<path d="M250 0H0V54H250V0Z" fill="white"/>
</mask>
<g mask="url(#mask0_26_2)">
<path d="M67.2546 5.2086C68.3889 5.2086 68.4167 5.52372 68.4167 6.29759V8.77678H63.9213V6.29759C63.9213 5.52372 63.9444 5.2086 65.0833 5.2086V4.91666H61.4444V5.2086C62.5787 5.2086 62.6296 5.52372 62.6296 6.29759V12.0067C62.6296 12.8315 62.5185 13.0957 61.4444 13.0957V13.3876H65.0833V13.0957C64.0185 13.0957 63.9213 12.8315 63.9213 12.0067V9.21238H68.4167V12.0067C68.4167 12.8315 68.3333 13.0957 67.2546 13.0957V13.3876H70.8935V13.0957C69.8194 13.0957 69.7222 12.8315 69.7222 12.0067V6.29759C69.7222 5.52372 69.7593 5.2086 70.8935 5.2086V4.91666H67.2546V5.2086ZM79.1713 4.80081C76.8611 4.80081 74.7731 6.42271 74.7731 9.15677C74.7731 11.8908 76.8611 13.5127 79.1713 13.5127C81.4815 13.5127 83.5556 11.8908 83.5556 9.15677C83.5556 6.42271 81.4768 4.80081 79.1713 4.80081ZM79.1713 13.0493C77.4537 13.0493 76.1852 11.3208 76.1852 9.15677C76.1852 6.99269 77.4537 5.26421 79.1713 5.26421C80.8889 5.26421 82.1435 6.99269 82.1435 9.15677C82.1435 11.3208 80.8889 13.0493 79.1713 13.0493ZM90.1296 4.9213H86.9491V5.21324C88.0972 5.21324 88.1343 5.53762 88.1343 6.30223V12.0113C88.1343 12.8084 88.037 13.1003 86.9491 13.1003V13.3922H90.838V13.1003C89.5833 13.1003 89.4259 12.8454 89.4259 12.0113V10.0048H89.838C92.1944 10.0048 93.5694 9.11043 93.5602 7.41902C93.5463 5.57932 92.0278 4.92593 90.1296 4.92593M89.8426 9.64798H89.4306V5.35226H89.8194C90.7963 5.31519 92.162 5.72761 92.162 7.40975C92.162 9.34677 90.7361 9.64798 89.8426 9.64798ZM101.995 12.9381H100.509C99.6898 12.9381 99.5046 12.5767 99.5046 11.9325V6.29759C99.5046 5.46347 99.662 5.2086 100.954 5.2086V4.91666H97.0278V5.2086C98.1528 5.2086 98.213 5.50981 98.213 6.29759V12.0067C98.213 12.8176 98.1157 13.0957 97.0278 13.0957V13.3876H103.685L103.819 11.4043H103.519C103.315 12.6879 102.912 12.9427 101.995 12.9427M111.856 4.80081C109.551 4.80081 107.458 6.42271 107.458 9.15677C107.458 11.8908 109.551 13.5127 111.856 13.5127C114.162 13.5127 116.241 11.8908 116.241 9.15677C116.241 6.42271 114.162 4.80081 111.856 4.80081ZM111.856 13.0493C110.139 13.0493 108.87 11.3208 108.87 9.15677C108.87 6.99269 110.139 5.26421 111.856 5.26421C113.574 5.26421 114.829 6.99269 114.829 9.15677C114.829 11.3208 113.574 13.0493 111.856 13.0493ZM125.815 11.6916L122.685 4.91666H120.125V5.2086C121.273 5.2086 121.444 5.4264 121.444 6.29759V12.0067C121.444 12.901 121.12 13.0957 120.125 13.0957V13.3876H123.148V13.0957C122.144 13.0957 121.977 12.901 121.977 12.0067V6.52929L125.241 13.4479H125.579L128.829 6.52929V12.0067C128.829 12.901 128.685 13.0957 127.694 13.0957V13.3876H131.394V13.0957C130.366 13.0957 130.125 12.8918 130.125 12.0067V6.29759C130.125 5.4403 130.366 5.2086 131.394 5.2086V4.91666H129.014L125.824 11.6916H125.815ZM142.25 11.9974L139.421 4.80081H139.083L136.245 11.9974C135.907 12.8315 135.704 13.1003 134.819 13.1003V13.3922H137.745V13.1003C136.731 13.1003 136.56 12.7389 136.815 12.0252L137.204 11.0196L137.37 10.584L138.87 6.63124L140.333 10.584L140.505 11.0196L140.88 12.0113C141.144 12.7991 141.097 13.1003 140.093 13.1003V13.3922H143.671V13.1003C142.778 13.1003 142.583 12.8362 142.259 11.9974M150.903 5.25958C152.134 5.25958 153.56 5.82956 153.56 7.83608H153.852L153.829 5.70908C153.009 5.13909 151.921 4.80081 150.81 4.80081C148.731 4.80081 146.458 5.95004 146.458 9.15677C146.458 12.3635 148.731 13.5127 150.81 13.5127C151.921 13.5127 153.009 13.1744 153.829 12.6045L153.852 10.4775H153.56C153.56 12.484 152.134 13.054 150.903 13.054C149.056 13.054 147.87 11.4599 147.87 9.16141C147.87 6.86294 149.056 5.26885 150.903 5.26885M163.398 5.2086C164.532 5.2086 164.56 5.52372 164.56 6.29759V8.77678H160.065V6.29759C160.065 5.52372 160.088 5.2086 161.227 5.2086V4.91666H157.588V5.2086C158.722 5.2086 158.773 5.52372 158.773 6.29759V12.0067C158.773 12.8315 158.667 13.0957 157.588 13.0957V13.3876H161.227V13.0957C160.162 13.0957 160.065 12.8315 160.065 12.0067V9.21238H164.56V12.0067C164.56 12.8315 164.477 13.0957 163.398 13.0957V13.3876H167.037V13.0957C165.963 13.0957 165.866 12.8315 165.866 12.0067V6.29759C165.866 5.52372 165.903 5.2086 167.037 5.2086V4.91666H163.398V5.2086ZM176.616 5.2086C177.801 5.2086 177.921 5.52372 177.921 6.29759V10.2782C177.921 12.2013 176.907 12.9891 175.491 12.9891C174.074 12.9891 173.134 12.1086 173.134 9.78236V6.29759C173.134 5.53298 173.171 5.2086 174.282 5.2086V4.91666H170.62V5.2086C171.755 5.2086 171.843 5.53298 171.843 6.29759V10.1577C171.843 11.9603 172.639 13.522 175.213 13.5081C177.833 13.4942 178.463 11.9464 178.463 10.2411V6.29759C178.463 5.50981 178.574 5.2086 179.565 5.2086V4.91666H176.616V5.2086ZM184.662 6.67295C184.662 5.69517 185.472 5.22251 186.245 5.22251C187.019 5.22251 187.792 5.68127 187.755 6.72392H188.056L188.153 5.22251C187.62 4.95837 186.898 4.80081 186.171 4.80081C184.759 4.80081 183.319 5.37079 183.319 6.97879C183.319 9.38384 187.208 9.5553 187.208 11.6221C187.208 12.3589 186.713 13.0957 185.676 13.0957C184.819 13.0957 183.755 12.8547 183.644 11.2235H183.352L183.278 12.8547C183.87 13.2162 184.569 13.522 185.694 13.522C187.481 13.522 188.546 12.5906 188.546 11.1865C188.546 8.73044 184.657 8.54972 184.657 6.67295" fill="#231F20"/>
<path d="M20.5185 23.0217C24.1204 23.0217 24.0787 24.4629 23.2778 26.5482L16.4352 44.5327L9.47223 26.5899C8.83334 24.9077 8.15278 23.0263 11.7546 23.0263V22.0671H0.111115V23.0263C3.27315 23.0263 3.83334 24.7085 4.63426 26.6733L14.3565 50.3067H15.9954L25.3194 26.6733C26.0417 24.7502 26.6806 23.0263 29.963 23.0263V22.0671H20.5185V23.0263V23.0217ZM34.7269 23.0217C38.4861 23.0217 38.6482 24.0643 38.6482 26.6269V45.5337C38.6482 48.2585 38.287 49.1389 34.7269 49.1389V50.1028H46.8102V49.1389C43.287 49.1389 42.9306 48.2585 42.9306 45.5337V26.6269C42.9306 24.0643 43.0509 23.0217 46.8102 23.0217V22.0625H34.7269V23.0217ZM67.8194 23.1839C71.9028 23.1839 76.625 25.0653 76.625 31.7151H77.5833L77.5046 24.6668C74.7824 22.7854 71.1806 21.6639 67.5 21.6639C60.6157 21.6639 53.0926 25.4685 53.0926 36.0849C53.0926 46.7014 60.6157 50.5059 67.5 50.5059C71.1806 50.5059 74.7824 49.3845 77.5046 47.5031L77.5833 40.4548H76.625C76.625 47.1046 71.9028 48.986 67.8194 48.986C61.6944 48.986 57.7732 43.6986 57.7732 36.0896C57.7732 28.4805 61.6944 23.1932 67.8194 23.1932M82.8611 22.0625L82.662 27.9893H83.625C84.3056 23.6658 85.2639 23.5036 89.1481 23.5036H93.5509V45.5337C93.5509 48.2168 93.0694 49.1389 88.8287 49.1389V50.1028H102.514V49.1389C98.3102 49.1389 97.8333 48.2168 97.8333 45.5337V23.5036H102.236C106.079 23.5036 107.037 23.6658 107.718 27.9893H108.718L108.477 22.0625H82.8657H82.8611ZM128.843 21.6593C121.199 21.6593 114.278 27.0255 114.278 36.0803C114.278 45.1351 121.199 50.5013 128.843 50.5013C136.486 50.5013 143.37 45.1351 143.37 36.0803C143.37 27.0255 136.486 21.6593 128.843 21.6593ZM128.843 48.9767C123.162 48.9767 118.958 43.2491 118.958 36.0803C118.958 28.9115 123.162 23.1839 128.843 23.1839C134.523 23.1839 138.685 28.9115 138.685 36.0803C138.685 43.2491 134.523 48.9767 128.843 48.9767ZM171.097 46.4929L162.894 37.123C167.134 35.5196 169.898 32.5585 169.898 29.3147C169.898 24.9865 166.218 22.0625 158.532 22.0625H148.009V23.0217C151.81 23.0217 151.931 24.1014 151.931 26.6269V45.5337C151.931 48.175 151.611 49.1389 148.009 49.1389V50.1028H160.653V49.1389C156.731 49.1389 156.208 48.2955 156.208 45.5337V38.5641H158.889L165.611 46.4141C166.37 47.3363 167.532 49.0184 168.051 50.0982H175.616V49.1343C174.134 49.1343 173.014 48.7358 171.093 46.4883M158.491 37.2434H156.208V23.5036H157.491C162.611 23.5036 165.255 25.6677 165.255 29.4305C165.255 33.1933 162.773 35.881 158.491 37.2388M197.546 23.0217C201.468 23.0217 201.866 24.0643 201.866 26.6269V39.806C201.866 46.1732 198.505 48.7775 193.824 48.7775C189.144 48.7775 186.023 45.8534 186.023 38.1656V26.6316C186.023 24.1061 186.144 23.0263 189.824 23.0263V22.0671H177.699V23.0263C181.458 23.0263 181.741 24.1061 181.741 26.6316V39.4075C181.741 45.3761 184.384 50.543 192.903 50.5013C201.588 50.4596 203.667 45.3344 203.667 39.6856V26.6269C203.667 24.0226 204.028 23.0217 207.31 23.0217V22.0625H197.546V23.0217ZM249.889 23.0217V22.0625H242.005L231.44 44.491L221.074 22.0625H212.593V23.0217C216.394 23.0217 216.954 23.7446 216.954 26.6269V45.5337C216.954 48.4994 215.875 49.1389 212.593 49.1389V50.1028H222.597V49.1389C219.278 49.1389 218.718 48.4994 218.718 45.5337V27.3916L229.523 50.3021H230.644L241.407 27.3916V45.5337C241.407 48.4994 240.926 49.1389 237.648 49.1389V50.1028H249.894V49.1389C246.491 49.1389 245.69 48.4577 245.69 45.5337V26.6269C245.69 23.7817 246.491 23.0217 249.894 23.0217" fill="#231F20"/>
<path d="M250 0H0V1.20484H250V0Z" fill="black"/>
<path d="M250 17.0948H0V18.2997H250V17.0948Z" fill="black"/>
<path d="M250 52.7905H0V53.9954H250V52.7905Z" fill="black"/>
</g>
</g>
<defs>
<clipPath id="clip0_26_2">
<rect width="250" height="54" fill="white"/>
</clipPath>
</defs>
</svg>
