<svg width="195" height="19" viewBox="0 0 195 19" fill="none" xmlns="http://www.w3.org/2000/svg">
<g clip-path="url(#clip0_34_26)">
<path d="M186.7 19.33H7.94C7.94 14.95 4.39 11.39 0 11.39V0H194.64V11.39C190.26 11.39 186.7 14.94 186.7 19.33Z" fill="#575756"/>
<path d="M37.26 14.05L33.82 7.59997V13.33C33.82 13.47 33.85 13.58 33.92 13.65C33.99 13.72 34.1 13.78 34.26 13.83V14.05H31.52V13.83C31.68 13.78 31.8 13.73 31.86 13.65C31.92 13.57 31.96 13.47 31.96 13.33V5.42997C31.96 5.28997 31.93 5.18997 31.86 5.11997C31.79 5.04997 31.68 4.98997 31.52 4.93997V4.71997H35.12V4.93997C34.91 4.98997 34.8 5.11997 34.8 5.31997C34.8 5.40997 34.83 5.51997 34.9 5.62997L37.45 10.45L40.03 5.70997C40.14 5.49997 40.2 5.34997 40.2 5.24997C40.2 5.05997 40.09 4.95997 39.86 4.93997V4.71997H43.39V4.93997C43.23 4.98997 43.11 5.03997 43.05 5.11997C42.99 5.19997 42.95 5.29997 42.95 5.42997V13.33C42.95 13.47 42.98 13.58 43.05 13.65C43.12 13.72 43.23 13.78 43.39 13.83V14.05H40.48V13.83C40.64 13.79 40.75 13.73 40.82 13.66C40.89 13.59 40.92 13.48 40.92 13.34V7.60997L37.29 14.06L37.26 14.05Z" fill="white"/>
<path d="M47.14 10.8V12.67H52C52.14 12.67 52.25 12.64 52.32 12.58C52.39 12.52 52.46 12.4 52.5 12.24H52.69V14.5H52.5C52.46 14.34 52.4 14.23 52.32 14.16C52.24 14.09 52.13 14.06 51.99 14.06H44.86V13.87C45.02 13.83 45.13 13.77 45.2 13.69C45.27 13.61 45.3 13.5 45.3 13.36V7.09997C45.3 6.95997 45.27 6.84997 45.2 6.77997C45.13 6.70997 45.02 6.64997 44.86 6.59997V6.40997H51.78C51.93 6.40997 52.04 6.37997 52.11 6.30997C52.18 6.23997 52.25 6.12997 52.29 5.96997H52.47V8.22997H52.29C52.24 8.05997 52.18 7.94997 52.11 7.88997C52.04 7.82997 51.92 7.79997 51.78 7.79997H47.13V9.47997H50.01C50.15 9.47997 50.26 9.44997 50.33 9.37997C50.4 9.30997 50.47 9.19997 50.52 9.03997H50.7V11.25H50.52C50.47 11.09 50.41 10.98 50.34 10.91C50.27 10.84 50.15 10.81 50.01 10.81H47.13L47.14 10.8Z" fill="white"/>
<path d="M56.13 10.9V13.34C56.13 13.48 56.16 13.59 56.23 13.66C56.29 13.74 56.41 13.8 56.57 13.85V14.04H53.86V13.85C54.02 13.81 54.13 13.75 54.2 13.67C54.27 13.59 54.3 13.48 54.3 13.34V7.07995C54.3 6.93995 54.27 6.82995 54.2 6.75995C54.13 6.68995 54.02 6.62995 53.86 6.57995V6.38995H58.88C59.53 6.38995 60.03 6.41995 60.37 6.48995C60.71 6.55995 61.02 6.67995 61.29 6.84995C61.84 7.20995 62.12 7.79995 62.12 8.60995C62.12 9.22995 61.95 9.70995 61.61 10.06C61.27 10.41 60.72 10.66 59.97 10.82L61.42 12.84C61.68 13.21 61.9 13.47 62.05 13.6C62.21 13.73 62.39 13.82 62.59 13.86V14.05H59.37V13.86C59.61 13.8 59.73 13.69 59.73 13.55C59.73 13.45 59.66 13.3 59.51 13.09L57.98 10.9H56.15H56.13ZM56.13 9.51995H58.89C59.31 9.51995 59.62 9.46995 59.82 9.37995C60.1 9.25995 60.24 9.00995 60.24 8.64995C60.24 8.32995 60.14 8.09995 59.94 7.96995C59.74 7.83995 59.39 7.77995 58.88 7.77995H56.12V9.51995H56.13Z" fill="white"/>
<path d="M70.79 11.3L71.95 12.99L71.79 13.11C71.68 13.03 71.59 12.99 71.53 12.99C71.45 12.99 71.27 13.07 70.99 13.24C70.37 13.6 69.81 13.86 69.34 14C68.87 14.14 68.31 14.21 67.69 14.21C66.44 14.21 65.42 13.91 64.63 13.31C64.18 12.97 63.83 12.54 63.56 12.02C63.28 11.46 63.14 10.86 63.14 10.21C63.14 9.30997 63.4 8.51997 63.92 7.82997C64.74 6.74997 65.99 6.21997 67.67 6.21997C68.29 6.21997 68.85 6.28997 69.33 6.42997C69.81 6.56997 70.37 6.81997 70.99 7.18997C71.27 7.35997 71.45 7.43997 71.53 7.43997C71.59 7.43997 71.68 7.39997 71.79 7.31997L71.95 7.43997L70.79 9.10997L70.64 8.99997C70.64 8.94997 70.64 8.90997 70.65 8.89997C70.65 8.85997 70.65 8.82997 70.65 8.80997C70.65 8.58997 70.34 8.33997 69.73 8.04997C69.15 7.77997 68.56 7.64997 67.97 7.64997C67.14 7.64997 66.46 7.86997 65.92 8.29997C65.3 8.78997 65 9.41997 65 10.19C65 10.96 65.31 11.59 65.92 12.09C66.46 12.52 67.15 12.74 67.97 12.74C68.62 12.74 69.26 12.58 69.9 12.25C70.4 11.99 70.65 11.77 70.65 11.58C70.65 11.58 70.65 11.51 70.63 11.39L70.78 11.27L70.79 11.3Z" fill="white"/>
<path d="M81.09 7.08996V11.14C81.09 12.07 80.91 12.74 80.54 13.18C79.95 13.87 78.84 14.21 77.22 14.21C76.13 14.21 75.25 14.04 74.58 13.71C74.1 13.47 73.77 13.12 73.59 12.68C73.43 12.27 73.34 11.76 73.34 11.14V7.08996C73.34 6.94996 73.31 6.83996 73.24 6.76996C73.17 6.69996 73.06 6.63996 72.9 6.58996V6.39996H75.61V6.58996C75.44 6.63996 75.33 6.69996 75.27 6.76996C75.21 6.83996 75.18 6.94996 75.18 7.08996V10.77C75.18 11.2 75.22 11.53 75.29 11.75C75.36 11.97 75.5 12.16 75.68 12.31C76.05 12.61 76.59 12.75 77.3 12.75C78.01 12.75 78.55 12.6 78.92 12.31C79.1 12.16 79.23 11.98 79.3 11.75C79.37 11.52 79.41 11.19 79.41 10.77V7.08996C79.41 6.94996 79.38 6.83996 79.32 6.76996C79.26 6.69996 79.14 6.63996 78.97 6.58996V6.39996H81.52V6.58996C81.36 6.63996 81.24 6.69996 81.18 6.76996C81.12 6.83996 81.08 6.94996 81.08 7.08996H81.09Z" fill="white"/>
<path d="M85 10.9V13.34C85 13.48 85.03 13.59 85.1 13.66C85.16 13.74 85.28 13.8 85.44 13.85V14.04H82.73V13.85C82.89 13.81 83 13.75 83.07 13.67C83.14 13.59 83.17 13.48 83.17 13.34V7.07995C83.17 6.93995 83.14 6.82995 83.07 6.75995C83 6.68995 82.89 6.62995 82.73 6.57995V6.38995H87.75C88.4 6.38995 88.9 6.41995 89.24 6.48995C89.58 6.55995 89.89 6.67995 90.16 6.84995C90.71 7.20995 90.99 7.79995 90.99 8.60995C90.99 9.22995 90.82 9.70995 90.48 10.06C90.14 10.41 89.59 10.66 88.84 10.82L90.29 12.84C90.55 13.21 90.77 13.47 90.92 13.6C91.08 13.73 91.26 13.82 91.46 13.86V14.05H88.24V13.86C88.48 13.8 88.6 13.69 88.6 13.55C88.6 13.45 88.53 13.3 88.38 13.09L86.85 10.9H85.02H85ZM85 9.51995H87.76C88.18 9.51995 88.49 9.46995 88.69 9.37995C88.97 9.25995 89.11 9.00995 89.11 8.64995C89.11 8.32995 89.01 8.09995 88.81 7.96995C88.61 7.83995 88.26 7.77995 87.75 7.77995H84.99V9.51995H85Z" fill="white"/>
<path d="M96.47 10.69V13.35C96.47 13.49 96.5 13.6 96.57 13.68C96.64 13.76 96.75 13.82 96.91 13.87V14.05H94.2V13.87C94.36 13.82 94.48 13.76 94.54 13.69C94.6 13.62 94.64 13.5 94.64 13.36V10.7L92.37 7.57997C92.11 7.22997 91.91 6.98997 91.76 6.85997C91.61 6.72997 91.43 6.63997 91.22 6.59997V6.40997H94.67V6.59997C94.37 6.67997 94.23 6.81997 94.23 7.01997C94.23 7.11997 94.34 7.31997 94.55 7.61997L95.66 9.15997L96.75 7.61997C96.96 7.31997 97.07 7.10997 97.07 7.00997C97.07 6.81997 96.92 6.67997 96.63 6.59997V6.40997H99.9V6.59997C99.69 6.64997 99.51 6.72997 99.36 6.85997C99.21 6.98997 99 7.22997 98.75 7.57997L96.48 10.7L96.47 10.69Z" fill="white"/>
<path d="M101.09 8.32999C101.46 8.08999 101.73 7.84999 101.9 7.61999C102.07 7.38999 102.18 7.07999 102.25 6.70999C102.04 6.75999 101.88 6.78999 101.77 6.78999C101.47 6.78999 101.23 6.68999 101.05 6.47999C100.87 6.26999 100.78 5.99999 100.78 5.65999C100.78 5.31999 100.87 5.04999 101.06 4.84999C101.25 4.64999 101.49 4.54999 101.79 4.54999C102.16 4.54999 102.46 4.69999 102.68 4.98999C102.9 5.27999 103.02 5.66999 103.02 6.14999C103.02 7.14999 102.49 8.01999 101.43 8.76999L101.1 8.32999H101.09Z" fill="white"/>
<path d="M112.07 7.07997L111.15 8.85997L110.99 8.76997C110.99 8.61997 110.94 8.49997 110.85 8.40997C110.59 8.17997 110.21 7.98997 109.7 7.83997C109.19 7.68997 108.68 7.60997 108.16 7.60997C107.72 7.60997 107.33 7.66997 106.98 7.78997C106.49 7.96997 106.24 8.22997 106.24 8.55997C106.24 8.77997 106.36 8.93997 106.6 9.03997C106.84 9.12997 107.3 9.20997 107.97 9.25997L109.05 9.33997C109.99 9.40997 110.71 9.59997 111.2 9.88997C111.47 10.05 111.7 10.27 111.88 10.55C112.1 10.89 112.21 11.28 112.21 11.71C112.21 12.49 111.86 13.1 111.16 13.56C110.49 13.99 109.58 14.21 108.44 14.21C107.3 14.21 106.17 13.97 105.1 13.48C105.03 13.45 104.97 13.43 104.92 13.43C104.83 13.43 104.75 13.48 104.67 13.59L104.5 13.52L105.29 11.65L105.46 11.72V11.77C105.46 11.89 105.51 11.99 105.6 12.07C105.83 12.27 106.22 12.45 106.78 12.59C107.34 12.73 107.89 12.81 108.44 12.81C108.92 12.81 109.36 12.75 109.74 12.62C110.21 12.47 110.45 12.21 110.45 11.87C110.45 11.59 110.29 11.4 109.96 11.29C109.74 11.22 109.35 11.16 108.78 11.11L107.71 11.02C107.13 10.97 106.69 10.92 106.38 10.84C106.08 10.77 105.81 10.66 105.58 10.52C105.29 10.34 105.06 10.09 104.9 9.76997C104.74 9.44997 104.65 9.10997 104.65 8.73997C104.65 7.89997 105.01 7.25997 105.73 6.81997C106.39 6.41997 107.2 6.21997 108.16 6.21997C108.68 6.21997 109.17 6.27997 109.63 6.38997C110.08 6.50997 110.62 6.70997 111.25 6.99997C111.44 7.08997 111.57 7.12997 111.64 7.12997C111.71 7.12997 111.81 7.07997 111.92 6.97997L112.08 7.06997L112.07 7.07997Z" fill="white"/>
<path d="M125.31 9.15995C126.36 9.55995 126.88 10.29 126.88 11.36C126.88 12.21 126.58 12.88 125.96 13.36C125.65 13.6 125.29 13.78 124.88 13.88C124.47 13.99 123.97 14.04 123.37 14.04H116.99V13.82C117.15 13.77 117.27 13.72 117.33 13.64C117.39 13.57 117.43 13.46 117.43 13.32V5.41995C117.43 5.27995 117.4 5.16995 117.33 5.09995C117.27 5.02995 117.15 4.96995 116.99 4.91995V4.69995H123.31C123.92 4.69995 124.4 4.74995 124.77 4.83995C125.14 4.92995 125.46 5.08995 125.74 5.29995C126.29 5.72995 126.57 6.35995 126.57 7.16995C126.57 8.07995 126.15 8.73995 125.31 9.13995V9.15995ZM119.48 8.42995H123.06C123.6 8.42995 123.98 8.34995 124.19 8.18995C124.43 8.00995 124.55 7.72995 124.55 7.33995C124.55 6.94995 124.44 6.66995 124.21 6.49995C123.98 6.32995 123.6 6.24995 123.05 6.24995H119.47V8.41995L119.48 8.42995ZM119.48 12.51H122.94C123.58 12.51 124.05 12.42 124.33 12.24C124.65 12.03 124.82 11.7 124.82 11.24C124.82 10.78 124.66 10.44 124.33 10.24C124.05 10.06 123.59 9.96995 122.94 9.96995H119.48V12.51Z" fill="white"/>
<path d="M132.43 6.22998C133.65 6.22998 134.66 6.53998 135.47 7.15998C136.44 7.90998 136.93 8.94998 136.93 10.28C136.93 11.53 136.44 12.53 135.47 13.28C134.67 13.9 133.66 14.21 132.44 14.21C131.22 14.21 130.21 13.9 129.41 13.28C128.43 12.53 127.95 11.51 127.95 10.22C127.95 8.92998 128.44 7.88998 129.41 7.15998C130.22 6.54998 131.22 6.23998 132.43 6.22998ZM132.43 7.67998C131.64 7.67998 131 7.92998 130.5 8.43998C130.04 8.90998 129.81 9.50998 129.81 10.22C129.81 10.93 130.04 11.52 130.5 12C131 12.51 131.64 12.77 132.44 12.77C133.24 12.77 133.87 12.51 134.37 12C134.83 11.53 135.06 10.95 135.06 10.26C135.06 9.50998 134.83 8.89998 134.37 8.43998C133.87 7.93998 133.22 7.68998 132.43 7.67998Z" fill="white"/>
<path d="M142.41 6.22998C143.63 6.22998 144.64 6.53998 145.45 7.15998C146.42 7.90998 146.91 8.94998 146.91 10.28C146.91 11.53 146.42 12.53 145.45 13.28C144.65 13.9 143.64 14.21 142.42 14.21C141.2 14.21 140.19 13.9 139.39 13.28C138.41 12.53 137.93 11.51 137.93 10.22C137.93 8.92998 138.42 7.88998 139.39 7.15998C140.2 6.54998 141.2 6.23998 142.41 6.22998ZM142.41 7.67998C141.62 7.67998 140.98 7.92998 140.48 8.43998C140.02 8.90998 139.79 9.50998 139.79 10.22C139.79 10.93 140.02 11.52 140.48 12C140.98 12.51 141.62 12.77 142.42 12.77C143.22 12.77 143.85 12.51 144.35 12C144.81 11.53 145.04 10.95 145.04 10.26C145.04 9.50998 144.81 8.89998 144.35 8.43998C143.85 7.93998 143.2 7.68998 142.41 7.67998Z" fill="white"/>
<path d="M152.27 7.77995V13.34C152.27 13.48 152.3 13.59 152.37 13.66C152.43 13.74 152.55 13.8 152.71 13.85V14.04H150V13.85C150.16 13.81 150.27 13.75 150.34 13.67C150.41 13.59 150.44 13.48 150.44 13.34V7.76995H148.18C148.03 7.76995 147.92 7.79995 147.85 7.86995C147.78 7.93995 147.71 8.04995 147.67 8.20995H147.49V5.94995H147.67C147.71 6.10995 147.77 6.21995 147.84 6.28995C147.91 6.35995 148.03 6.38995 148.17 6.38995H154.52C154.67 6.38995 154.78 6.35995 154.85 6.28995C154.93 6.22995 154.98 6.10995 155.03 5.94995H155.21V8.20995H155.03C154.99 8.04995 154.92 7.93995 154.85 7.86995C154.78 7.79995 154.66 7.76995 154.52 7.76995H152.26L152.27 7.77995Z" fill="white"/>
<path d="M163.38 7.07997L162.46 8.85997L162.3 8.76997C162.3 8.61997 162.25 8.49997 162.16 8.40997C161.9 8.17997 161.52 7.98997 161.01 7.83997C160.5 7.68997 159.99 7.60997 159.47 7.60997C159.03 7.60997 158.64 7.66997 158.29 7.78997C157.8 7.96997 157.55 8.22997 157.55 8.55997C157.55 8.77997 157.67 8.93997 157.91 9.03997C158.15 9.12997 158.61 9.20997 159.28 9.25997L160.36 9.33997C161.3 9.40997 162.02 9.59997 162.51 9.88997C162.78 10.05 163.01 10.27 163.19 10.55C163.41 10.89 163.52 11.28 163.52 11.71C163.52 12.49 163.17 13.1 162.47 13.56C161.8 13.99 160.89 14.21 159.75 14.21C158.61 14.21 157.48 13.97 156.41 13.48C156.34 13.45 156.28 13.43 156.23 13.43C156.14 13.43 156.06 13.48 155.98 13.59L155.81 13.52L156.6 11.65L156.77 11.72V11.77C156.77 11.89 156.82 11.99 156.91 12.07C157.14 12.27 157.53 12.45 158.09 12.59C158.65 12.73 159.2 12.81 159.75 12.81C160.23 12.81 160.67 12.75 161.05 12.62C161.52 12.47 161.76 12.21 161.76 11.87C161.76 11.59 161.6 11.4 161.27 11.29C161.05 11.22 160.66 11.16 160.09 11.11L159.02 11.02C158.44 10.97 158 10.92 157.69 10.84C157.39 10.77 157.12 10.66 156.89 10.52C156.6 10.34 156.37 10.09 156.21 9.76997C156.05 9.44997 155.96 9.10997 155.96 8.73997C155.96 7.89997 156.32 7.25997 157.04 6.81997C157.7 6.41997 158.51 6.21997 159.47 6.21997C159.99 6.21997 160.48 6.27997 160.94 6.38997C161.39 6.50997 161.93 6.70997 162.56 6.99997C162.75 7.08997 162.88 7.12997 162.95 7.12997C163.02 7.12997 163.12 7.07997 163.23 6.97997L163.39 7.06997L163.38 7.07997Z" fill="white"/>
</g>
<defs>
<clipPath id="clip0_34_26">
<rect width="195" height="19" fill="white"/>
</clipPath>
</defs>
</svg>
