<svg width="12" height="10" viewBox="0 0 12 10" fill="none" xmlns="http://www.w3.org/2000/svg">
<path d="M4.42498 7.41379C4.42498 7.41379 4.47205 7.46081 4.48774 7.47649C4.51912 7.55486 4.53482 7.63323 4.55051 7.7116C4.55051 7.78997 4.55051 7.88401 4.55051 7.96238C4.55051 8.0094 4.55051 8.04075 4.59758 8.05643C4.59758 8.05643 4.61327 8.0721 4.61327 8.08777C4.61327 8.18182 4.61327 8.27586 4.59758 8.36991C4.59758 8.40125 4.51912 8.44828 4.47205 8.44828C4.40928 8.46395 4.34652 8.44828 4.28375 8.44828C4.26806 8.44828 4.23668 8.41693 4.23668 8.38558C4.23668 8.27586 4.1896 8.18182 4.17391 8.08777C4.17391 8.05643 4.17391 8.02508 4.17391 7.99373C4.1896 7.86834 4.22099 7.74295 4.25237 7.61755C4.26806 7.55486 4.31514 7.49216 4.34652 7.42947C4.34652 7.41379 4.40928 7.41379 4.44067 7.39812L4.42498 7.41379ZM7.53187 7.55486C7.53187 7.55486 7.53187 7.60188 7.51618 7.61755C7.4848 7.68025 7.43772 7.72727 7.42203 7.78997C7.37496 7.96238 7.34358 8.1348 7.31219 8.32288C7.31219 8.33856 7.31219 8.36991 7.34358 8.38558C7.40634 8.41693 7.46911 8.44828 7.54756 8.46395C7.61033 8.47962 7.72017 8.40125 7.72017 8.33856C7.73586 8.18182 7.75155 8.02508 7.78294 7.86834C7.78294 7.82132 7.78294 7.78997 7.73586 7.77429C7.72017 7.77429 7.70448 7.74295 7.68879 7.7116C7.75155 7.66458 7.70448 7.60188 7.70448 7.53918C7.70448 7.44514 7.56326 7.36677 7.4848 7.41379C7.43772 7.44514 7.40634 7.55486 7.43772 7.61755C7.45342 7.58621 7.4848 7.57053 7.50049 7.55486C7.50049 7.55486 7.50049 7.55486 7.51618 7.55486H7.53187ZM6.35502 7.41379C6.35502 7.41379 6.27656 7.46082 6.22949 7.46082C6.2138 7.46082 6.1981 7.46082 6.18241 7.49216C6.10396 7.57053 6.10396 7.68025 6.10396 7.77429C6.10396 7.77429 6.11965 7.75862 6.13534 7.74295C6.13534 7.74295 6.16672 7.7116 6.18241 7.69592C6.18241 7.69592 6.2138 7.7116 6.2138 7.72727C6.2138 7.74295 6.2138 7.77429 6.1981 7.78997C6.18241 7.85266 6.15103 7.89969 6.13534 7.96238C6.13534 8.0094 6.13534 8.0721 6.13534 8.1348C6.13534 8.18182 6.13534 8.19749 6.18241 8.19749C6.26087 8.19749 6.33933 8.21317 6.40209 8.21317C6.43347 8.21317 6.44917 8.19749 6.48055 8.18182C6.49624 8.18182 6.51193 8.15047 6.52762 8.1348C6.59039 8.11912 6.59039 8.0721 6.59039 8.02508C6.59039 7.91536 6.55901 7.80564 6.59039 7.7116C6.60608 7.63323 6.5747 7.60188 6.52762 7.57053C6.49624 7.53918 6.44917 7.50784 6.41778 7.47649C6.41778 7.47649 6.41778 7.47649 6.41778 7.46082L6.49624 7.49216C6.49624 7.49216 6.41778 7.39812 6.35502 7.42947V7.41379ZM5.6646 8.11912C5.6646 8.11912 5.72736 8.0094 5.75874 7.94671C5.75874 7.94671 5.79013 7.94671 5.80582 7.96238C5.80582 7.91536 5.80582 7.86834 5.8372 7.82132C5.86858 7.69592 5.8372 7.63323 5.72736 7.58621C5.71167 7.58621 5.68029 7.57053 5.6489 7.55486C5.72736 7.55486 5.77444 7.57053 5.85289 7.58621C5.74305 7.42947 5.57045 7.38245 5.50768 7.46082C5.53907 7.47649 5.55476 7.49216 5.60183 7.52351C5.55476 7.52351 5.52337 7.52351 5.50768 7.55486C5.49199 7.63323 5.39784 7.68025 5.38215 7.75862C5.38215 7.85266 5.38215 7.94671 5.38215 8.05643C5.38215 8.0721 5.41353 8.11912 5.42923 8.11912C5.53906 8.15047 5.6489 8.18182 5.75874 8.21317C5.79013 8.21317 5.80582 8.21317 5.8372 8.21317C5.8372 8.16614 5.8372 8.11912 5.82151 8.0721C5.77444 8.1348 5.74305 8.16614 5.69598 8.15047L5.6646 8.11912ZM3.75025 8.87147C3.75025 8.87147 3.84439 8.90282 3.89147 8.8558C3.92285 8.82445 3.95423 8.77743 3.98562 8.73041C3.98562 8.71473 4.017 8.68339 4.017 8.65204C4.017 8.55799 4.017 8.47962 4.017 8.38558C4.017 8.36991 4.017 8.33856 4.017 8.32288C4.00131 8.26019 3.95423 8.22884 3.89147 8.26019C3.75025 8.30721 3.6561 8.35423 3.67179 8.52665C3.67179 8.52665 3.67179 8.55799 3.67179 8.57367C3.67179 8.60502 3.68748 8.65204 3.70317 8.68339C3.70317 8.71473 3.71886 8.73041 3.73455 8.74608C3.70317 8.80878 3.71886 8.8558 3.76594 8.87147H3.75025ZM7.92416 8.66771C7.92416 8.66771 7.97123 8.73041 8.00261 8.74608C8.00261 8.74608 8.00261 8.76176 8.00261 8.77743C8.04969 8.80878 8.08107 8.8558 8.12815 8.88715C8.17522 8.9185 8.22229 8.90282 8.23799 8.84012C8.25368 8.73041 8.26937 8.62069 8.26937 8.4953V8.47962C8.2066 8.44828 8.2066 8.38558 8.19091 8.33856C8.19091 8.33856 8.17522 8.30721 8.15953 8.30721C8.09676 8.27586 8.01831 8.26019 7.93985 8.30721C7.92416 8.30721 7.90847 8.35423 7.90847 8.38558C7.90847 8.40125 7.95554 8.41693 7.97123 8.41693C8.01831 8.4326 8.034 8.44828 8.00261 8.51097C7.98692 8.51097 7.95554 8.4953 7.92416 8.46395C7.92416 8.54232 7.89278 8.62069 7.89278 8.68339L7.92416 8.66771ZM7.09251 7.94671C7.09251 7.94671 7.09251 7.91536 7.09251 7.89969C7.10821 7.75862 7.20235 7.63323 7.04544 7.50784C6.98267 7.46081 6.87283 7.44514 6.84145 7.50784C6.77869 7.66458 6.79438 7.83699 6.84145 7.99373C6.84145 7.99373 6.84145 7.99373 6.84145 8.0094C6.88853 8.02508 6.95129 8.05643 6.99837 8.05643C6.99837 8.05643 7.02975 8.0094 7.04544 7.97806C7.04544 7.97806 7.04544 7.97806 7.04544 7.96238L7.09251 7.94671ZM4.98987 7.42947C4.98987 7.42947 4.9271 7.42947 4.89572 7.46082C4.83295 7.53919 4.83295 7.63323 4.86433 7.72727C4.88003 7.77429 4.89572 7.82132 4.88003 7.88401C4.88003 7.94671 4.88003 7.99373 4.94279 8.0094C4.94279 8.0094 4.95848 8.02508 4.98987 8.04075C4.94279 8.04075 4.91141 8.04075 4.89572 8.04075C5.00556 8.08777 5.02125 8.08777 5.06832 7.99373C5.08401 7.96238 5.09971 7.91536 5.09971 7.88401C5.1154 7.75862 5.14678 7.6489 5.16247 7.52351C5.09971 7.49216 5.03694 7.46082 4.98987 7.42947ZM8.44197 9.12226C8.44197 9.12226 8.44197 9.2163 8.44197 9.26332C8.44197 9.26332 8.44197 9.29467 8.44197 9.31035C8.45767 9.42006 8.59889 9.52978 8.72442 9.51411C8.72442 9.51411 8.7558 9.51411 8.7558 9.49843C8.77149 9.43574 8.80288 9.38871 8.7558 9.32602C8.72442 9.29467 8.72442 9.24765 8.69304 9.20063C8.67735 9.16928 8.64596 9.13793 8.59889 9.09091C8.53612 9.09091 8.47336 9.09091 8.42628 9.13793L8.44197 9.12226ZM3.35796 9.26332C3.35796 9.26332 3.43642 9.26332 3.48349 9.26332C3.49918 9.26332 3.53057 9.26332 3.53057 9.23197C3.56195 9.16928 3.48349 9.09091 3.43642 9.07523C3.32658 9.05956 3.24812 9.07524 3.23243 9.2163C3.23243 9.24765 3.20105 9.279 3.18535 9.32602C3.18535 9.37304 3.18535 9.42006 3.18535 9.48276C3.26381 9.46708 3.32658 9.46709 3.37365 9.43574C3.42073 9.40439 3.4678 9.35737 3.51487 9.31035C3.4678 9.31035 3.42073 9.29467 3.35796 9.279C3.35796 9.279 3.35796 9.279 3.35796 9.26332ZM2.746 9.9373C2.746 9.9373 2.746 9.95298 2.77738 9.95298C2.87153 10.0157 2.93429 10 2.98137 9.90596C2.98137 9.90596 2.98137 9.90596 2.98137 9.89028C3.02321 9.79624 3.00229 9.72832 2.9186 9.68652C2.9186 9.68652 2.90291 9.68652 2.88722 9.67085C2.80876 9.6395 2.76169 9.67085 2.71461 9.73354C2.71461 9.81191 2.71461 9.87461 2.746 9.95298V9.9373ZM8.97548 9.96865C8.97548 9.96865 9.06963 10 9.1167 10C9.1167 10 9.14809 10 9.14809 9.98433C9.14809 9.90596 9.17947 9.81191 9.17947 9.73354C9.17947 9.67085 9.1167 9.6395 9.05394 9.6395C8.99117 9.6395 8.95979 9.67085 8.92841 9.73354C8.89703 9.79624 8.92841 9.84326 8.99117 9.85893C8.92841 9.90596 8.92841 9.95298 8.99117 9.96865H8.97548ZM11.5803 8.05643C11.5803 8.05643 11.6116 7.91536 11.6273 7.85266C11.643 7.75862 11.6587 7.66458 11.6587 7.57053C11.6587 7.52351 11.6273 7.47649 11.6901 7.44514C11.6901 7.44514 11.6901 7.42947 11.6901 7.41379C11.7058 7.2884 11.7215 7.14734 11.7529 7.02194C11.8313 6.72414 11.9098 6.42633 11.9882 6.12853C12.0039 6.03448 12.0039 5.94044 11.9882 5.84639C11.9882 5.7837 11.9725 5.73668 11.9882 5.67398C11.9882 5.59561 11.9882 5.51724 11.9412 5.43887C11.8941 5.3605 11.8941 5.26646 11.8156 5.18809C11.8156 5.18809 11.8156 5.18809 11.8156 5.17241C11.7529 5.01567 11.6901 4.84326 11.6273 4.68652C11.6116 4.6395 11.5959 4.5768 11.5803 4.52978C11.5803 4.51411 11.5803 4.48276 11.5489 4.46708C11.4861 4.43574 11.4861 4.38871 11.4861 4.34169C11.4861 4.279 11.4861 4.23197 11.4233 4.2163L11.392 4.18495C11.4233 4.12226 11.392 4.05956 11.3606 4.01254C11.3292 3.94984 11.3135 3.87147 11.2821 3.80878C11.2507 3.74608 11.2978 3.65204 11.2037 3.62069C11.2037 3.62069 11.2037 3.60502 11.2037 3.58934C11.2194 3.51097 11.2037 3.46395 11.1566 3.40125C11.1409 3.36991 11.1409 3.33856 11.1252 3.30721C11.1095 3.22884 11.1252 3.15047 11.0154 3.11912C11.0154 3.11912 11.0154 3.11912 11.0154 3.10345C11.0311 3.10345 11.0624 3.10345 11.0781 3.10345C11.0154 3.04075 10.9997 2.97806 11.0311 2.91536V2.88401C10.9526 2.83699 10.9212 2.75862 10.9212 2.68025C10.9212 2.68025 10.9055 2.66458 10.8898 2.6489C10.8114 2.53918 10.7329 2.44514 10.6545 2.33542C10.5917 2.25705 10.5446 2.16301 10.4662 2.10031C10.4348 2.08464 10.372 2.03762 10.4034 1.97492C10.3563 1.9279 10.3093 1.88088 10.2622 1.83386C10.1837 1.75549 10.1053 1.66144 10.0268 1.58307C10.0268 1.58307 9.99542 1.55172 9.97973 1.53605C9.94835 1.5047 9.91697 1.45768 9.88558 1.42633C9.83851 1.37931 9.77574 1.34796 9.72867 1.30094C9.61883 1.2069 9.54037 1.0815 9.38346 1.03448C9.38346 1.03448 9.35208 1.01881 9.35208 1.00313C9.27362 0.940439 9.19516 0.862069 9.1167 0.815047C9.00686 0.752351 8.88133 0.721003 8.77149 0.658307C8.67735 0.611285 8.5832 0.54859 8.47336 0.517242C8.34783 0.454546 8.2066 0.423198 8.06538 0.360502C7.86139 0.282132 7.6574 0.219436 7.45342 0.188088C7.34358 0.188088 7.24943 0.15674 7.13959 0.125392C6.96698 0.0940441 6.79438 0.0470219 6.62177 0.015674C6.62177 0.0783699 6.59039 0.0940442 6.51193 0.0783702C6.29225 0.0470222 6.08826 0 5.86858 0C5.72736 0 5.60183 0.0313479 5.46061 0.015674C5.46061 0.015674 5.42923 0.0313479 5.41353 0.0470219C5.38215 0.0470219 5.35077 0.0783702 5.33508 0.0783702C5.25662 0.0783702 5.17816 0.0783698 5.09971 0.0626959C5.08401 0.0626959 5.05263 0.0626962 5.03694 0.0940442C5.00556 0.125392 4.98987 0.125392 4.94279 0.109718C4.91141 0.109718 4.88003 0.109718 4.86433 0.109718C4.83295 0.141066 4.81726 0.141066 4.77019 0.125392C4.70742 0.125392 4.64466 0.0783701 4.61327 0.172414C4.61327 0.172414 4.58189 0.172414 4.5662 0.172414C4.48774 0.172414 4.39359 0.172414 4.31514 0.188088C4.28375 0.188088 4.26806 0.188088 4.25237 0.219436C4.22099 0.266458 4.17391 0.266458 4.12684 0.266458C4.09546 0.266458 4.04838 0.266458 4.017 0.297806C3.98562 0.297806 3.95423 0.329154 3.92285 0.329154C3.8287 0.329154 3.76594 0.376176 3.73455 0.47022C3.73455 0.517242 3.70317 0.517242 3.67179 0.501568C3.62471 0.485894 3.56195 0.470219 3.51487 0.454545C3.4678 0.454545 3.43642 0.454546 3.43642 0.501568C3.42073 0.564264 3.37365 0.564264 3.32658 0.54859C3.2795 0.54859 3.24812 0.532916 3.23243 0.579937C3.23243 0.611285 3.16966 0.658307 3.13828 0.658307C3.04413 0.626959 3.02844 0.721003 2.96567 0.752351C2.9186 0.783699 2.82445 0.752351 2.79307 0.846395C2.79307 0.846395 2.79307 0.862069 2.79307 0.877743C2.79307 0.877743 2.76169 0.893417 2.746 0.909091C2.71461 0.924765 2.66754 0.924765 2.65185 0.956113C2.57339 1.03448 2.47924 1.11285 2.3694 1.17555C2.35371 1.17555 2.33802 1.2069 2.32233 1.22257C2.27525 1.28527 2.24387 1.36364 2.14972 1.41066C2.10265 1.42633 2.05557 1.47335 2.03988 1.53605C2.0085 1.59875 1.97712 1.64577 1.91435 1.67712C1.85159 1.70846 1.80451 1.75549 1.77313 1.81818C1.74175 1.8652 1.71036 1.89655 1.67898 1.94357C1.61621 2.03762 1.53776 2.11599 1.47499 2.21003C1.42792 2.27273 1.39653 2.3511 1.34946 2.39812C1.23962 2.50784 1.16116 2.63323 1.11409 2.77429C0.972867 3.16614 0.831644 3.57367 0.690422 3.96552C0.659039 4.07524 0.627656 4.16928 0.596273 4.279C0.580582 4.38871 0.486434 4.46708 0.486434 4.59248C0.486434 4.59248 0.470742 4.62382 0.455051 4.6395C0.407977 4.70219 0.360902 4.74922 0.329519 4.81191C0.235371 5.04702 0.10984 5.26646 0.0627655 5.51724C0.0313827 5.64263 0.0156914 5.76802 0 5.90909C0 5.95611 0.0313828 6.00313 0.0313828 6.03448C0.0313828 6.15987 0.0313828 6.28527 0.0470742 6.39498C0.0470742 6.39498 0.0470742 6.39498 0.0470742 6.41066C0.078457 6.5047 0.10984 6.59875 0.141223 6.69279C0.141223 6.70846 0.141223 6.72414 0.141223 6.75549C0.172605 6.84953 0.10984 6.95925 0.21968 7.03762C0.21968 7.03762 0.21968 7.06897 0.21968 7.08464C0.21968 7.16301 0.21968 7.24138 0.298137 7.30407C0.298137 7.30407 0.298137 7.30408 0.298137 7.31975C0.282445 7.31975 0.251062 7.31975 0.235371 7.31975C0.235371 7.31975 0.235371 7.33542 0.235371 7.3511C0.266754 7.3511 0.282445 7.36677 0.298137 7.38244C0.298137 7.47649 0.298137 7.55486 0.298137 7.6489C0.345211 7.6489 0.360902 7.63323 0.407977 7.61755C0.32952 7.75862 0.376594 7.88401 0.345211 8.0094C0.376594 8.0094 0.392285 8.0094 0.423668 8.02508V8.08777C0.470742 8.16614 0.533508 8.24451 0.596273 8.30721C0.690422 8.40125 0.78457 8.51097 0.925793 8.52665C0.957176 8.52665 0.972867 8.52665 1.00425 8.55799C0.988558 8.55799 0.957176 8.55799 0.941484 8.55799C0.941484 8.55799 0.941484 8.57367 0.941484 8.58934C0.957176 8.60502 0.988558 8.63636 1.00425 8.63636C1.20824 8.71473 1.39653 8.77743 1.60052 8.84012C1.61621 8.84012 1.66329 8.84012 1.66329 8.80878C1.69467 8.74608 1.71036 8.68339 1.74175 8.62069C1.80451 8.44828 1.85159 8.27586 1.93004 8.10345C1.97712 8.0094 2.03988 7.89969 2.1811 7.91536C2.1811 7.89969 2.1811 7.88401 2.1811 7.85266C2.24387 7.86834 2.30664 7.83699 2.35371 7.91536C2.32233 7.91536 2.30664 7.94671 2.29094 7.94671C2.40078 8.02508 2.49493 8.08777 2.57339 8.15047C2.60477 8.22884 2.63616 8.29154 2.66754 8.36991C2.71461 8.47962 2.66754 8.58934 2.65185 8.71473C2.62046 8.84013 2.58908 8.98119 2.5577 9.10658C2.5577 9.16928 2.60477 9.23197 2.68323 9.24765C2.76169 9.26332 2.80876 9.24765 2.84014 9.16928C2.84014 9.16928 2.84014 9.1536 2.84014 9.13793C2.9186 9.05956 2.99706 8.98119 3.05982 8.88715C3.15397 8.73041 3.24812 8.55799 3.34227 8.38558C3.34227 8.38558 3.34227 8.36991 3.34227 8.35423C3.35796 8.27586 3.37365 8.18182 3.38934 8.10345C3.38934 8.10345 3.38934 8.08777 3.40503 8.08777C3.49918 8.05643 3.56195 7.99373 3.62471 7.93103C3.68748 7.86834 3.78163 7.82132 3.87578 7.77429C3.95423 7.74295 4.017 7.68025 4.04838 7.60188C4.07976 7.53918 4.07976 7.52351 4.017 7.50784C4.017 7.47649 4.017 7.44514 4.017 7.39812C4.017 7.36677 4.017 7.31975 4.03269 7.30407C4.09546 7.21003 4.17391 7.13166 4.25237 7.05329C4.25237 7.05329 4.28375 7.05329 4.29944 7.05329C4.36221 7.06897 4.42498 7.10031 4.48774 7.13166C4.44067 7.24138 4.53482 7.2257 4.58189 7.24138C4.69173 7.2884 4.70742 7.27273 4.7388 7.19436C4.83295 7.19436 4.94279 7.2257 5.03694 7.24138C5.08401 7.24138 5.1154 7.27273 5.14678 7.2884C5.20955 7.31975 5.27231 7.31975 5.31939 7.24138C5.33508 7.21003 5.33508 7.16301 5.35077 7.10031C5.35077 7.10031 5.38215 7.10031 5.39784 7.10031C5.39784 7.11599 5.39784 7.14734 5.39784 7.16301C5.39784 7.21003 5.36646 7.24138 5.36646 7.2884C5.36646 7.2884 5.36646 7.2884 5.38215 7.2884C5.41353 7.27273 5.42923 7.24138 5.46061 7.22571C5.4763 7.22571 5.50768 7.19436 5.52337 7.19436C5.61752 7.22571 5.69598 7.25705 5.79013 7.27273C5.8372 7.2884 5.89997 7.30408 5.94704 7.31975C5.96273 7.31975 5.99412 7.31975 5.99412 7.31975C5.99412 7.30408 5.99412 7.27273 5.99412 7.25705C5.99412 7.24138 5.97842 7.2257 5.96273 7.21003C5.96273 7.21003 5.96273 7.21003 5.97842 7.21003C6.00981 7.24138 6.0255 7.27273 6.04119 7.2884C6.07257 7.31975 6.08826 7.33542 6.13534 7.2884C6.1981 7.24138 6.24518 7.14734 6.33933 7.21003C6.33933 7.21003 6.35502 7.21003 6.37071 7.21003C6.41778 7.21003 6.44917 7.21003 6.49624 7.21003C6.63746 7.25705 6.77869 7.25705 6.90422 7.21003C6.99837 7.17868 7.09251 7.17868 7.18666 7.21003C7.24943 7.21003 7.31219 7.22571 7.37496 7.22571C7.40634 7.22571 7.43772 7.21003 7.45342 7.17868C7.4848 7.11599 7.53187 7.08464 7.57895 7.10031C7.57895 7.06897 7.56326 7.02194 7.57895 7.02194C7.59464 7.00627 7.62602 7.02194 7.6574 7.02194C7.6731 7.02194 7.68879 7.02194 7.70448 7.02194C7.73586 7.02194 7.76724 7.05329 7.73586 7.10031C7.72017 7.14734 7.73586 7.16301 7.76724 7.17868C7.87708 7.25705 7.93985 7.38244 7.90847 7.50784C7.87708 7.61755 7.92416 7.7116 8.04969 7.74295C8.11245 7.75862 8.17522 7.77429 8.19091 7.85266C8.19091 7.85266 8.22229 7.86834 8.23799 7.88401C8.33213 7.94671 8.44197 7.97806 8.47336 8.10345C8.47336 8.11912 8.50474 8.1348 8.52043 8.15047C8.56751 8.16614 8.56751 8.19749 8.56751 8.22884C8.55181 8.30721 8.56751 8.38558 8.63027 8.41693C8.66165 8.51097 8.67735 8.60502 8.70873 8.68339C8.77149 8.7931 8.84995 8.88715 8.92841 8.99687C8.9441 9.02821 8.99117 9.04389 9.02256 9.07523C9.06963 9.10658 9.10101 9.12226 9.08532 9.18495V9.23197C9.14809 9.26332 9.21085 9.29467 9.27362 9.31035C9.28931 9.31035 9.32069 9.24765 9.35208 9.2163C9.35208 9.2163 9.35208 9.18495 9.36777 9.16928C9.36777 9.12226 9.36777 9.07523 9.36777 9.04389C9.33638 8.98119 9.32069 8.9185 9.32069 8.8558C9.32069 8.7931 9.32069 8.69906 9.28931 8.65204C9.24224 8.58934 9.24224 8.54232 9.25793 8.47962C9.27362 8.41693 9.28931 8.35423 9.32069 8.29154C9.36777 8.21317 9.39915 8.11912 9.50899 8.10345C9.52468 8.10345 9.55606 8.0721 9.57176 8.04075C9.63452 7.93103 9.6659 7.91536 9.77574 7.96238C9.82282 7.97806 9.88558 7.99373 9.91697 8.05643C9.94835 8.11912 10.0111 8.15047 10.0582 8.19749L10.0268 8.22884C10.0739 8.33856 10.121 8.4326 10.1523 8.54232C10.168 8.62069 10.1523 8.69906 10.1837 8.77743C10.2151 8.82445 10.2151 8.88715 10.2622 8.9185C10.2936 8.94984 10.372 8.9185 10.4348 8.9185C10.4034 8.88715 10.4034 8.87147 10.3877 8.8558C10.4505 8.88715 10.5132 8.87147 10.5603 8.84012C10.576 8.84012 10.6231 8.84012 10.6388 8.84012C10.6858 8.84012 10.7015 8.82445 10.6858 8.77743C10.6858 8.77743 10.6858 8.74608 10.6858 8.71473C10.7486 8.77743 10.7957 8.74608 10.8428 8.71473C10.8741 8.68339 10.9055 8.66771 10.9369 8.63636C10.9997 8.60502 11.0467 8.55799 11.1095 8.52665H11.1409C11.1723 8.51097 11.2037 8.4953 11.235 8.46395C11.2821 8.41693 11.3135 8.36991 11.3606 8.32288C11.4547 8.26019 11.5175 8.18182 11.5489 8.05643H11.5803ZM4.5662 4.32602C4.5662 4.32602 4.53481 4.38871 4.50343 4.38871C4.42498 4.38871 4.40928 4.45141 4.3779 4.49843C4.33083 4.59248 4.26806 4.65517 4.15822 4.68652C4.15822 4.68652 4.12684 4.70219 4.12684 4.71787C4.07976 4.79624 4.00131 4.81191 3.92285 4.84326C3.87578 4.90596 3.79732 4.90596 3.71886 4.90596C3.6561 4.90596 3.6561 4.95298 3.68748 5C3.60902 5 3.49918 4.89028 3.45211 5.01567C3.23243 5.01567 3.02844 5.01567 2.82445 5C2.82445 5.03135 2.82445 5.04702 2.82445 5.09404C2.79307 5.0627 2.77738 5.04702 2.746 5.03135C2.65185 5.10972 2.5577 5.03135 2.46355 5.03135C2.40078 5.03135 2.3694 5.04702 2.30664 5.0627C2.1811 5.09404 2.05557 5.10972 1.93004 5.0627C1.8202 5.01567 1.71036 4.9373 1.6476 4.82759C1.6476 4.81191 1.61621 4.79624 1.60052 4.78056C1.56914 4.74922 1.53776 4.71787 1.55345 4.65517C1.55345 4.62382 1.55345 4.60815 1.53776 4.5768C1.53776 4.51411 1.52207 4.45141 1.53776 4.40439C1.55345 4.32602 1.60052 4.23197 1.61621 4.15361C1.63191 4.07524 1.61621 4.01254 1.6476 3.93417C1.66329 3.80878 1.69467 3.69906 1.72605 3.57367V3.55799C1.80451 3.55799 1.80451 3.47962 1.8202 3.4326C1.83589 3.40125 1.86728 3.36991 1.89866 3.33856C1.94573 3.29154 1.99281 3.24451 2.02419 3.19749C2.05557 3.15047 2.08696 3.08777 2.16541 3.08777C2.16541 3.08777 2.1968 3.08777 2.1968 3.0721C2.24387 3.0094 2.29094 2.97806 2.35371 2.96238C2.40078 2.96238 2.43217 2.91536 2.46355 2.88401C2.57339 2.80564 2.68323 2.74295 2.82445 2.75862C2.82445 2.72727 2.82445 2.7116 2.82445 2.68025C2.85584 2.68025 2.87153 2.68025 2.90291 2.68025C2.96568 2.68025 3.01275 2.6489 3.07551 2.61755C3.15397 2.57053 3.24812 2.57053 3.34227 2.58621C3.42073 2.60188 3.51487 2.61755 3.59333 2.63323C3.59333 2.63323 3.59333 2.63323 3.59333 2.61755L3.48349 2.58621C3.56195 2.52351 4.017 2.66458 4.12684 2.77429C4.09546 2.77429 4.06407 2.77429 4.00131 2.77429C4.06407 2.80564 4.11115 2.83699 4.15822 2.85266C4.26806 2.89969 4.36221 2.94671 4.3779 3.0721C4.50343 3.18182 4.45636 3.35423 4.51912 3.47962C4.51912 3.47962 4.51912 3.51097 4.51912 3.52665C4.51912 3.52665 4.51912 3.52665 4.55051 3.54232C4.58189 3.4953 4.61327 3.46395 4.64466 3.41693C4.64466 3.41693 4.64466 3.41693 4.66035 3.41693C4.66035 3.4326 4.64466 3.46395 4.62896 3.47962C4.59758 3.54232 4.53482 3.58934 4.55051 3.66771C4.55051 3.68339 4.55051 3.71473 4.55051 3.73041C4.61327 3.82445 4.59758 3.93417 4.5662 4.02821C4.53482 4.12226 4.50343 4.2163 4.45636 4.32602H4.5662ZM7.07682 6.58307C7.07682 6.58307 7.06113 6.61442 7.04544 6.61442C6.96698 6.61442 6.95129 6.67712 6.91991 6.72414C6.76299 6.95925 6.51193 6.88088 6.35502 6.77116C6.35502 6.77116 6.33933 6.73981 6.32364 6.72414C6.29225 6.67712 6.26087 6.64577 6.1981 6.66144C6.18241 6.66144 6.15103 6.66144 6.13534 6.66144C6.13534 6.66144 6.18241 6.59875 6.2138 6.58307C6.10396 6.47335 5.94704 6.45768 5.82151 6.5674C5.82151 6.5674 5.80582 6.58307 5.79013 6.58307C5.69598 6.55172 5.68029 6.63009 5.6489 6.69279C5.61752 6.75549 5.58614 6.80251 5.53907 6.8652C5.4763 6.8652 5.41353 6.8652 5.33508 6.8652C5.31939 6.8652 5.30369 6.8652 5.288 6.88088C5.24093 6.91223 5.16247 6.89655 5.14678 6.83386C5.13109 6.75549 5.06832 6.72414 5.00556 6.69279C4.95848 6.67712 4.91141 6.64577 4.9271 6.5674C4.9271 6.48903 4.88003 6.53605 4.84864 6.53605C4.84864 6.44201 4.81726 6.34796 4.77019 6.26959C4.7388 6.22257 4.7545 6.1442 4.7545 6.0815C4.7545 6.0815 4.7545 6.05016 4.7545 6.03448C4.77019 5.95611 4.77019 5.87774 4.70742 5.83072C4.81726 5.70533 4.80157 5.54859 4.81726 5.40752C4.81726 5.37618 4.81726 5.34483 4.83295 5.31348C4.86433 5.20376 4.89572 5.10972 4.9271 4.98433C4.97417 4.98433 4.98987 4.9373 5.00556 4.87461C5.03694 4.76489 5.05263 4.65517 5.09971 4.54545C5.13109 4.45141 5.19385 4.37304 5.24093 4.279C5.31939 4.13793 5.39784 4.01254 5.49199 3.88715C5.49199 3.87147 5.50768 3.84013 5.50768 3.82445C5.50768 3.77743 5.52337 3.77743 5.57045 3.7931C5.61752 3.82445 5.6489 3.7931 5.6646 3.76176C5.72736 3.60502 5.88428 3.57367 5.99412 3.4953C6.04119 3.46395 6.08826 3.47962 6.13534 3.52665C6.1981 3.58934 6.29225 3.63636 6.37071 3.68339C6.3864 3.68339 6.41778 3.68339 6.44917 3.69906C6.41778 3.77743 6.44917 3.80878 6.51193 3.84013C6.51193 3.84013 6.54331 3.8558 6.54331 3.87147C6.54331 3.99687 6.66885 4.02821 6.70023 4.12226C6.70023 4.15361 6.76299 4.16928 6.79438 4.18495C6.7473 4.279 6.82576 4.32602 6.85714 4.40439C6.88853 4.49843 6.95129 4.5768 6.99837 4.67085C6.99837 4.70219 7.01406 4.73354 7.01406 4.74922C7.01406 4.79624 7.01406 4.84326 7.06113 4.87461C7.09251 4.90596 7.09251 4.96865 7.09251 5.03135C7.09251 5.09404 7.09251 5.14107 7.13959 5.18809C7.17097 5.23511 7.17097 5.32915 7.17097 5.39185C7.17097 5.43887 7.15528 5.50157 7.21804 5.51724C7.21804 5.51724 7.21804 5.53292 7.21804 5.54859C7.21804 5.61129 7.21804 5.68966 7.21804 5.75235C7.21804 5.83072 7.21804 5.89342 7.24943 5.97179C7.28081 6.03448 7.24943 6.11285 7.21804 6.17555C7.17097 6.30094 7.1239 6.42633 7.07682 6.53605V6.58307ZM10.3877 4.70219C10.3877 4.70219 10.3406 4.76489 10.2936 4.79624C10.2465 4.81191 10.2308 4.87461 10.1994 4.92163C10.168 4.96865 10.1366 5 10.0739 4.98433C10.0739 4.98433 10.0582 4.98433 10.0425 4.98433C9.97973 5.04702 9.91697 5.01567 9.83851 5.01567C9.79144 5.01567 9.76005 5.01567 9.71298 5.03135C9.65021 5.03135 9.60314 5.03135 9.54037 5.03135C9.41484 5.01567 9.27362 4.98433 9.14809 4.96865C9.05394 4.96865 8.97548 4.96865 8.88133 4.96865C8.81857 4.96865 8.77149 4.96865 8.70873 4.96865C8.37921 4.92163 8.08107 4.79624 7.78294 4.67085C7.78294 4.67085 7.75155 4.65517 7.73586 4.6395C7.64171 4.52978 7.56326 4.43574 7.46911 4.32602C7.50049 4.29467 7.46911 4.24765 7.42203 4.2163C7.37496 4.18495 7.34358 4.15361 7.35927 4.09091C7.35927 4.04389 7.35927 3.99687 7.35927 3.94984C7.35927 3.94984 7.35927 3.94984 7.34358 3.93417C7.34358 3.94984 7.32789 3.96552 7.31219 3.98119C7.31219 3.98119 7.31219 3.98119 7.2965 3.96552C7.2965 3.93417 7.32789 3.90282 7.34358 3.87147C7.34358 3.7931 7.34358 3.69906 7.37496 3.60502C7.42203 3.41693 7.4848 3.24451 7.54756 3.05643C7.54756 3.02508 7.59464 2.97806 7.62602 2.97806C7.70448 2.94671 7.75155 2.88401 7.78294 2.82132C7.78294 2.80564 7.81432 2.77429 7.8457 2.77429C7.92416 2.77429 7.97123 2.74295 8.01831 2.68025C8.01831 2.68025 8.06538 2.66458 8.08107 2.66458C8.17522 2.66458 8.26937 2.66458 8.36352 2.58621C8.36352 2.58621 8.41059 2.58621 8.42628 2.58621C8.50474 2.58621 8.59889 2.61755 8.67735 2.63323C8.70873 2.63323 8.7558 2.6489 8.77149 2.60188C8.77149 2.60188 8.80288 2.60188 8.81857 2.60188C8.89702 2.63323 8.97548 2.68025 9.05394 2.7116C9.14809 2.75862 9.22654 2.78997 9.32069 2.83699C9.47761 2.89969 9.63452 2.96238 9.77574 3.04075C9.79144 3.04075 9.82282 3.0721 9.82282 3.08777C9.82282 3.18182 9.90128 3.21317 9.96404 3.24451C9.97973 3.24451 9.99542 3.29154 10.0111 3.30721V3.33856C10.0896 3.33856 10.0739 3.41693 10.1053 3.46395C10.1053 3.47962 10.1366 3.51097 10.168 3.51097C10.2151 3.52665 10.2308 3.54232 10.2151 3.60502C10.2151 3.63636 10.2151 3.66771 10.2308 3.68339C10.2779 3.73041 10.2936 3.77743 10.2622 3.82445C10.2622 3.87147 10.2465 3.9185 10.3249 3.90282C10.2465 4.02821 10.2622 4.10658 10.3563 4.13793C10.3563 4.23197 10.3563 4.32602 10.3877 4.38871C10.4505 4.51411 10.4191 4.62382 10.3406 4.73354L10.3877 4.70219Z" fill="#1D1D1B"/>
</svg>
