<svg width="32" height="32" viewBox="0 0 32 32" fill="none" xmlns="http://www.w3.org/2000/svg">
<g clip-path="url(#clip0_31_15)">
<path d="M16 31.3111C24.4561 31.3111 31.3111 24.4561 31.3111 16C31.3111 7.54389 24.4561 0.688858 16 0.688858C7.54389 0.688858 0.688858 7.54389 0.688858 16C0.688858 24.4561 7.54389 31.3111 16 31.3111Z" fill="#292C3A"/>
<mask id="mask0_31_15" style="mask-type:luminance" maskUnits="userSpaceOnUse" x="0" y="0" width="32" height="32">
<path d="M16 31.3111C24.4561 31.3111 31.3111 24.4561 31.3111 16C31.3111 7.54389 24.4561 0.688858 16 0.688858C7.54389 0.688858 0.688858 7.54389 0.688858 16C0.688858 24.4561 7.54389 31.3111 16 31.3111Z" fill="white"/>
</mask>
<g mask="url(#mask0_31_15)">
<path d="M6.20895 18.3054C8.33984 15.5775 11.5453 11.3984 15.0999 10.682C18.6544 9.97474 25.4971 12.2526 26.0298 12.1056C24.6705 12.6659 17.9472 11.2606 15.8071 11.6188C17.938 11.7658 20.0138 11.7842 21.1068 12.8496C16.349 12.225 12.5741 11.7382 7.56831 17.9472C8.5419 19.0126 8.87256 18.7738 8.87256 18.7738L8.27554 18.0023L8.82663 17.5614C8.82663 17.5614 11.8484 21.3456 16.3949 20.8496C21.3731 20.2985 24.2204 15.3387 24.2204 15.3387C24.2204 15.3387 24.597 15.4856 24.2847 16.1286C23.5132 17.7359 21.0425 20.9506 16.7532 21.7313C13.2721 22.3651 11.3708 21.3548 9.86452 20.3352C8.35821 19.3157 6.20895 18.3146 6.20895 18.3146V18.3054ZM11.6188 17.8553L11.132 18.8565L11.3065 18.9943L12.2985 18.3605L11.9495 19.4627L12.5924 19.7842L13.3731 18.5718C13.3731 18.5718 13.2721 19.2147 13.318 19.9954C15.899 20.6016 18.6636 19.4811 18.6636 19.4811L18.1033 18.0941C18.1033 18.0941 18.8106 18.3146 19.527 18.5809C20.4179 17.8278 20.8588 16.4225 20.8588 16C20.8588 15.5775 20.9231 14.9621 20.5924 14.6682C20.6108 15.0723 19.9954 15.8898 19.9954 15.8898C19.9954 15.8898 20.0413 14.9805 19.9954 14.2916C18.8381 13.5844 16.0827 13.7589 16.0827 13.7589C16.0827 13.7589 16.4684 14.9988 16.5786 16.1286C16.6889 17.2583 16.0918 19.0677 16.0918 19.0677C16.0918 19.0677 15.3479 17.8553 15.0815 16.5603C14.8152 15.2652 15.0815 13.8967 15.0815 13.8967C9.72675 14.9437 10.4799 18.2962 10.4799 18.2962L11.6096 17.8737L11.6188 17.8553Z" fill="#F6F5CC"/>
</g>
<path d="M16 31.3111C24.4561 31.3111 31.3111 24.4561 31.3111 16C31.3111 7.54389 24.4561 0.688858 16 0.688858C7.54389 0.688858 0.688858 7.54389 0.688858 16C0.688858 24.4561 7.54389 31.3111 16 31.3111Z" stroke="#1D1D1B" stroke-width="1.5" stroke-miterlimit="10"/>
</g>
<defs>
<clipPath id="clip0_31_15">
<rect width="32" height="32" fill="white"/>
</clipPath>
</defs>
</svg>
