<svg width="32" height="31" viewBox="0 0 32 31" fill="none" xmlns="http://www.w3.org/2000/svg">
<g clip-path="url(#clip0_36_47)">
<path d="M16.0079 30.5734C24.6047 30.5734 31.5738 23.8248 31.5738 15.5C31.5738 7.17522 24.6047 0.426636 16.0079 0.426636C7.41111 0.426636 0.442033 7.17522 0.442033 15.5C0.442033 23.8248 7.41111 30.5734 16.0079 30.5734Z" fill="#1D1D1B" stroke="#D1BBA4" stroke-width="0.55" stroke-miterlimit="10"/>
<path d="M16.0079 6.11469C12.5664 6.11469 10.6877 8.65852 10.1194 10.4755C10.5141 10.6809 11.0666 10.9337 11.6981 11.2024C12.9926 11.7396 14.6502 12.261 16.0079 12.261C17.3656 12.261 19.0232 11.708 20.3019 11.1708C20.965 10.8863 21.5175 10.6019 21.9122 10.4123C21.2965 8.51632 19.4336 6.13049 16.0079 6.13049V6.11469ZM22.3069 11.2024C21.8964 11.4078 21.3439 11.6922 20.6808 11.9766C19.3389 12.5454 17.6182 13.1458 16.0237 13.1458C14.4292 13.1458 12.6926 12.577 11.3508 12.024C10.6877 11.7396 10.1194 11.471 9.70893 11.2656C9.67736 14.5994 9.53527 17.8068 10.1825 20.1611C10.5298 21.4251 11.0982 22.4205 12.0138 23.1157C12.5979 23.5581 13.3557 23.9057 14.3187 24.0795V16.4954C12.9137 17.2538 11.0192 16.6218 10.372 15.0576C10.7982 13.999 11.8402 13.4934 12.8505 13.4934C14.0503 13.4934 15.2028 14.2202 15.2343 15.6264V19.8293H16.9867V15.6896V15.6264C17.0183 14.236 18.1707 13.5092 19.3705 13.4934C20.3809 13.4934 21.407 13.999 21.849 15.0576C21.2018 16.6376 19.2916 17.2538 17.9023 16.5112V24.0795C18.8495 23.8899 19.5915 23.5581 20.1598 23.0999C21.0597 22.4047 21.5964 21.3935 21.928 20.1137C22.5437 17.7436 22.3542 14.5204 22.3226 11.2182" fill="#D1BBA4"/>
</g>
<defs>
<clipPath id="clip0_36_47">
<rect width="32" height="31" fill="white"/>
</clipPath>
</defs>
</svg>
